M48
;GenerationSoftware,Autodesk,EAGLE,9.6.2*%
;CreationDate,2020-08-25T06:16:00Z*%
FMAT,2
ICI,OFF
METRIC,TZ,000.000
T7C0.800
T6C0.813
T5C1.016
T4C1.300
T3C1.500
T2C3.000
%
G90
M71
T2
X7020Y43860
X7020Y31360
X49190Y31830
X49040Y43700
T3
X49010Y35880
X49020Y39860
T4
X29350Y32120
X29350Y44120
X41550Y32120
X27350Y38120
X41550Y44120
T5
X15500Y37460
X15500Y40000
X15500Y42540
X49020Y35880
X49020Y39880
T6
X11500Y32230
X11500Y34770
T7
X8230Y35075
X8230Y39925
M30