M48
;GenerationSoftware,Autodesk,EAGLE,9.6.2*%
;CreationDate,2020-08-27T13:05:38Z*%
FMAT,2
ICI,OFF
METRIC,TZ,000.000
T5C0.350
T4C0.813
T3C1.016
T2C1.499
%
G90
M71
T2
X35560Y51800
X50800Y51800
X15240Y51800
X30480Y51800
X35560Y58150
X50800Y58150
X15240Y58150
X30480Y64500
X15240Y64500
X50800Y64500
X35560Y64500
X30480Y58150
T3
X8600Y49200
X8500Y55200
X8300Y61300
X20320Y44180
X22860Y44180
X25400Y44180
X52070Y41640
X52070Y45831
T4
X31750Y44180
X34290Y44180
T5
X44500Y44500
X42500Y44000
X40500Y43000
M30