G04 EAGLE Gerber RS-274X export*
G75*
%MOMM*%
%FSLAX34Y34*%
%LPD*%
%INSilkscreen Bottom*%
%IPPOS*%
%AMOC8*
5,1,8,0,0,1.08239X$1,22.5*%
G01*
%ADD10C,0.101600*%
%ADD11C,0.127000*%


D10*
X466162Y467474D02*
X457357Y467474D01*
X451654Y467474D02*
X442848Y467474D01*
X437145Y467474D02*
X428340Y467474D01*
X422637Y467474D02*
X413831Y467474D01*
X408128Y467474D02*
X399323Y467474D01*
X393620Y467474D02*
X384815Y467474D01*
X379111Y467474D02*
X370306Y467474D01*
X364603Y467474D02*
X355798Y467474D01*
X350095Y467474D02*
X341289Y467474D01*
X335586Y467474D02*
X326781Y467474D01*
X321078Y467474D02*
X312272Y467474D01*
X306569Y467474D02*
X297764Y467474D01*
X292061Y467474D02*
X283255Y467474D01*
X277552Y467474D02*
X268747Y467474D01*
X263044Y467474D02*
X254239Y467474D01*
X248535Y467474D02*
X239730Y467474D01*
X234027Y467474D02*
X225222Y467474D01*
X219519Y467474D02*
X210713Y467474D01*
X205010Y467474D02*
X196205Y467474D01*
X190502Y467474D02*
X181696Y467474D01*
X175993Y467474D02*
X167188Y467474D01*
X161485Y467474D02*
X152680Y467474D01*
X146976Y467474D02*
X138171Y467474D01*
X132468Y467474D02*
X123663Y467474D01*
X117960Y467474D02*
X109154Y467474D01*
X103451Y467474D02*
X94646Y467474D01*
X88943Y467474D02*
X80137Y467474D01*
X74434Y467474D02*
X65629Y467474D01*
X59926Y467474D02*
X51120Y467474D01*
X45417Y467474D02*
X36612Y467474D01*
X30909Y467474D02*
X22104Y467474D01*
X16400Y467474D02*
X7595Y467474D01*
X1892Y467474D02*
X-6913Y467474D01*
X-12616Y467474D02*
X-21422Y467474D01*
X471462Y468299D02*
X471462Y450689D01*
X471462Y446963D02*
X471462Y429353D01*
X471462Y425627D02*
X471462Y408017D01*
X471462Y404291D02*
X471462Y386681D01*
X471462Y382955D02*
X471462Y365345D01*
X471462Y361619D02*
X471462Y344009D01*
X471462Y340283D02*
X471462Y322673D01*
X471462Y318947D02*
X471462Y301337D01*
X241762Y449589D02*
X241762Y467199D01*
X241762Y445863D02*
X241762Y428253D01*
X241762Y424527D02*
X241762Y406917D01*
X241762Y403191D02*
X241762Y385581D01*
X241762Y381855D02*
X241762Y364245D01*
X241762Y360519D02*
X241762Y342909D01*
X241762Y339183D02*
X241762Y321573D01*
X241762Y317847D02*
X241762Y300237D01*
X460157Y296274D02*
X468962Y296274D01*
X454454Y296274D02*
X445648Y296274D01*
X439945Y296274D02*
X431140Y296274D01*
X425437Y296274D02*
X416631Y296274D01*
X410928Y296274D02*
X402123Y296274D01*
X396420Y296274D02*
X387615Y296274D01*
X381911Y296274D02*
X373106Y296274D01*
X367403Y296274D02*
X358598Y296274D01*
X352895Y296274D02*
X344089Y296274D01*
X338386Y296274D02*
X329581Y296274D01*
X323878Y296274D02*
X315072Y296274D01*
X309369Y296274D02*
X300564Y296274D01*
X294861Y296274D02*
X286055Y296274D01*
X280352Y296274D02*
X271547Y296274D01*
X265844Y296274D02*
X257039Y296274D01*
X251335Y296274D02*
X242530Y296274D01*
X236827Y296274D02*
X228022Y296274D01*
X222319Y296274D02*
X213513Y296274D01*
X207810Y296274D02*
X199005Y296274D01*
X193302Y296274D02*
X184496Y296274D01*
X178793Y296274D02*
X169988Y296274D01*
X164285Y296274D02*
X155480Y296274D01*
X149776Y296274D02*
X140971Y296274D01*
X135268Y296274D02*
X126463Y296274D01*
X120760Y296274D02*
X111954Y296274D01*
X106251Y296274D02*
X97446Y296274D01*
X91743Y296274D02*
X82937Y296274D01*
X77234Y296274D02*
X68429Y296274D01*
X62726Y296274D02*
X53920Y296274D01*
X48217Y296274D02*
X39412Y296274D01*
X33709Y296274D02*
X24904Y296274D01*
X19200Y296274D02*
X10395Y296274D01*
X4692Y296274D02*
X-4113Y296274D01*
X-9816Y296274D02*
X-18622Y296274D01*
D11*
X244500Y461200D02*
X464500Y461200D01*
X244500Y461200D02*
X244500Y301200D01*
X464500Y301200D01*
X464500Y461200D01*
D10*
X426692Y363792D02*
X426692Y352108D01*
X426692Y363792D02*
X423446Y363792D01*
X423333Y363790D01*
X423220Y363784D01*
X423107Y363774D01*
X422994Y363760D01*
X422882Y363743D01*
X422771Y363721D01*
X422661Y363696D01*
X422551Y363666D01*
X422443Y363633D01*
X422336Y363596D01*
X422230Y363556D01*
X422126Y363511D01*
X422023Y363463D01*
X421922Y363412D01*
X421823Y363357D01*
X421726Y363299D01*
X421631Y363237D01*
X421538Y363172D01*
X421448Y363104D01*
X421360Y363033D01*
X421274Y362958D01*
X421191Y362881D01*
X421111Y362801D01*
X421034Y362718D01*
X420959Y362632D01*
X420888Y362544D01*
X420820Y362454D01*
X420755Y362361D01*
X420693Y362266D01*
X420635Y362169D01*
X420580Y362070D01*
X420529Y361969D01*
X420481Y361866D01*
X420436Y361762D01*
X420396Y361656D01*
X420359Y361549D01*
X420326Y361441D01*
X420296Y361331D01*
X420271Y361221D01*
X420249Y361110D01*
X420232Y360998D01*
X420218Y360885D01*
X420208Y360772D01*
X420202Y360659D01*
X420200Y360546D01*
X420202Y360433D01*
X420208Y360320D01*
X420218Y360207D01*
X420232Y360094D01*
X420249Y359982D01*
X420271Y359871D01*
X420296Y359761D01*
X420326Y359651D01*
X420359Y359543D01*
X420396Y359436D01*
X420436Y359330D01*
X420481Y359226D01*
X420529Y359123D01*
X420580Y359022D01*
X420635Y358923D01*
X420693Y358826D01*
X420755Y358731D01*
X420820Y358638D01*
X420888Y358548D01*
X420959Y358460D01*
X421034Y358374D01*
X421111Y358291D01*
X421191Y358211D01*
X421274Y358134D01*
X421360Y358059D01*
X421448Y357988D01*
X421538Y357920D01*
X421631Y357855D01*
X421726Y357793D01*
X421823Y357735D01*
X421922Y357680D01*
X422023Y357629D01*
X422126Y357581D01*
X422230Y357536D01*
X422336Y357496D01*
X422443Y357459D01*
X422551Y357426D01*
X422661Y357396D01*
X422771Y357371D01*
X422882Y357349D01*
X422994Y357332D01*
X423107Y357318D01*
X423220Y357308D01*
X423333Y357302D01*
X423446Y357300D01*
X423446Y357301D02*
X426692Y357301D01*
X422797Y357301D02*
X420201Y352108D01*
X414932Y352108D02*
X409739Y352108D01*
X414932Y352108D02*
X414932Y363792D01*
X409739Y363792D01*
X411037Y358599D02*
X414932Y358599D01*
X405026Y363792D02*
X405026Y352108D01*
X399833Y352108D01*
X396173Y352108D02*
X392278Y363792D01*
X388383Y352108D01*
X389357Y355029D02*
X395199Y355029D01*
X384743Y363792D02*
X380848Y358275D01*
X376953Y363792D01*
X380848Y358275D02*
X380848Y352108D01*
M02*
