G04 EAGLE Gerber RS-274X export*
G75*
%MOMM*%
%FSLAX34Y34*%
%LPD*%
%INSoldermask Top*%
%IPPOS*%
%AMOC8*
5,1,8,0,0,1.08239X$1,22.5*%
G01*
%ADD10C,1.703200*%
%ADD11C,3.203200*%
%ADD12P,1.869504X8X22.500000*%
%ADD13C,1.156759*%
%ADD14R,1.553200X0.603200*%
%ADD15C,1.270000*%
%ADD16C,1.511200*%
%ADD17P,1.649562X8X292.500000*%
%ADD18R,2.203200X2.203200*%
%ADD19C,2.203200*%
%ADD20C,1.727200*%
%ADD21R,1.103200X1.003200*%
%ADD22R,1.003200X1.103200*%
%ADD23R,1.003200X1.003200*%
%ADD24R,1.529300X2.853200*%


D10*
X490200Y398600D03*
X490100Y358800D03*
D11*
X70200Y438600D03*
X70200Y313600D03*
X491900Y318300D03*
X490400Y437000D03*
D12*
X490200Y398800D03*
X490200Y358800D03*
D13*
X59732Y382268D02*
X50268Y382268D01*
X50268Y391732D01*
X59732Y391732D01*
X59732Y382268D01*
X59732Y358268D02*
X50268Y358268D01*
X50268Y367732D01*
X59732Y367732D01*
X59732Y358268D01*
D14*
X83750Y381500D03*
X83750Y388000D03*
X83750Y375000D03*
X83750Y368500D03*
X83750Y362000D03*
D15*
X60588Y411250D02*
X49412Y411250D01*
X49412Y338750D02*
X60588Y338750D01*
D16*
X82300Y399250D03*
X82300Y350750D03*
D17*
X115000Y347700D03*
X115000Y322300D03*
D18*
X273500Y381200D03*
D19*
X415500Y441200D03*
X415500Y321200D03*
X293500Y441200D03*
X293500Y321200D03*
D20*
X162620Y425400D02*
X147380Y425400D01*
X147380Y400000D02*
X162620Y400000D01*
X162620Y374600D02*
X147380Y374600D01*
D21*
X220462Y291500D03*
X236338Y291500D03*
D22*
X217800Y374962D03*
X217800Y390838D03*
D23*
X115500Y383080D03*
X115500Y398320D03*
D24*
X217754Y345600D03*
X273646Y345600D03*
X199946Y318500D03*
X144054Y318500D03*
M02*
