solid CATIA STL
  facet normal  0.000000e+000  -0.000000e+000 -1.000000e+000
    outer loop
      vertex  0.000000e+000  0.000000e+000  0.000000e+000
      vertex  2.218333e+001  6.500000e+000  0.000000e+000
      vertex  7.318333e+001  6.500000e+000  0.000000e+000
    endloop
  endfacet
  facet normal  -0.000000e+000  0.000000e+000 -1.000000e+000
    outer loop
      vertex  5.684342e-014  1.500000e+002  0.000000e+000
      vertex  2.800000e+002  1.500000e+002  0.000000e+000
      vertex  7.318333e+001  1.435000e+002  0.000000e+000
    endloop
  endfacet
  facet normal  0.000000e+000  0.000000e+000 -1.000000e+000
    outer loop
      vertex  5.684342e-014  1.500000e+002  0.000000e+000
      vertex  7.318333e+001  1.435000e+002  0.000000e+000
      vertex  2.218333e+001  1.435000e+002  0.000000e+000
    endloop
  endfacet
  facet normal  -0.000000e+000  -0.000000e+000 -1.000000e+000
    outer loop
      vertex  5.684342e-014  1.500000e+002  0.000000e+000
      vertex  2.218333e+001  1.435000e+002  0.000000e+000
      vertex  2.218333e+001  6.500000e+000  0.000000e+000
    endloop
  endfacet
  facet normal  -0.000000e+000  0.000000e+000 -1.000000e+000
    outer loop
      vertex  5.684342e-014  1.500000e+002  0.000000e+000
      vertex  2.218333e+001  6.500000e+000  0.000000e+000
      vertex  0.000000e+000  0.000000e+000  0.000000e+000
    endloop
  endfacet
  facet normal  0.000000e+000  0.000000e+000 -1.000000e+000
    outer loop
      vertex  2.800000e+002  0.000000e+000  0.000000e+000
      vertex  0.000000e+000  0.000000e+000  0.000000e+000
      vertex  7.318333e+001  6.500000e+000  0.000000e+000
    endloop
  endfacet
  facet normal  0.000000e+000  0.000000e+000 -1.000000e+000
    outer loop
      vertex  2.800000e+002  0.000000e+000  0.000000e+000
      vertex  7.318333e+001  6.500000e+000  0.000000e+000
      vertex  2.699336e+002  4.700000e+001  0.000000e+000
    endloop
  endfacet
  facet normal  0.000000e+000  0.000000e+000 -1.000000e+000
    outer loop
      vertex  2.800000e+002  0.000000e+000  0.000000e+000
      vertex  2.699336e+002  4.700000e+001  0.000000e+000
      vertex  2.699336e+002  1.030000e+002  0.000000e+000
    endloop
  endfacet
  facet normal  0.000000e+000  0.000000e+000 -1.000000e+000
    outer loop
      vertex  2.800000e+002  0.000000e+000  0.000000e+000
      vertex  2.699336e+002  1.030000e+002  0.000000e+000
      vertex  2.800000e+002  1.500000e+002  0.000000e+000
    endloop
  endfacet
  facet normal  0.000000e+000  0.000000e+000 -9.999999e-001
    outer loop
      vertex  7.318333e+001  6.500000e+000  0.000000e+000
      vertex  7.318333e+001  1.435000e+002  0.000000e+000
      vertex  1.080384e+002  8.550000e+001  0.000000e+000
    endloop
  endfacet
  facet normal  0.000000e+000  -0.000000e+000 -1.000000e+000
    outer loop
      vertex  7.318333e+001  6.500000e+000  0.000000e+000
      vertex  1.080384e+002  8.550000e+001  0.000000e+000
      vertex  1.080384e+002  6.450000e+001  0.000000e+000
    endloop
  endfacet
  facet normal  0.000000e+000  -0.000000e+000 -1.000000e+000
    outer loop
      vertex  7.318333e+001  6.500000e+000  0.000000e+000
      vertex  1.080384e+002  6.450000e+001  0.000000e+000
      vertex  1.510384e+002  6.450000e+001  0.000000e+000
    endloop
  endfacet
  facet normal  0.000000e+000  -0.000000e+000 -9.999999e-001
    outer loop
      vertex  7.318333e+001  6.500000e+000  0.000000e+000
      vertex  1.510384e+002  6.450000e+001  0.000000e+000
      vertex  1.849336e+002  4.700000e+001  0.000000e+000
    endloop
  endfacet
  facet normal  0.000000e+000  -0.000000e+000 -1.000000e+000
    outer loop
      vertex  7.318333e+001  6.500000e+000  0.000000e+000
      vertex  1.849336e+002  4.700000e+001  0.000000e+000
      vertex  2.699336e+002  4.700000e+001  0.000000e+000
    endloop
  endfacet
  facet normal  0.000000e+000  0.000000e+000 -1.000000e+000
    outer loop
      vertex  2.699336e+002  1.030000e+002  0.000000e+000
      vertex  1.849336e+002  1.030000e+002  0.000000e+000
      vertex  2.800000e+002  1.500000e+002  0.000000e+000
    endloop
  endfacet
  facet normal  0.000000e+000  0.000000e+000 -1.000000e+000
    outer loop
      vertex  2.800000e+002  1.500000e+002  0.000000e+000
      vertex  1.849336e+002  1.030000e+002  0.000000e+000
      vertex  7.318333e+001  1.435000e+002  0.000000e+000
    endloop
  endfacet
  facet normal  0.000000e+000  0.000000e+000 -9.999999e-001
    outer loop
      vertex  1.849336e+002  1.030000e+002  0.000000e+000
      vertex  1.510384e+002  8.550000e+001  0.000000e+000
      vertex  7.318333e+001  1.435000e+002  0.000000e+000
    endloop
  endfacet
  facet normal  0.000000e+000  0.000000e+000 -1.000000e+000
    outer loop
      vertex  7.318333e+001  1.435000e+002  0.000000e+000
      vertex  1.510384e+002  8.550000e+001  0.000000e+000
      vertex  1.080384e+002  8.550000e+001  0.000000e+000
    endloop
  endfacet
  facet normal  0.000000e+000  0.000000e+000 -1.000000e+000
    outer loop
      vertex  1.510384e+002  8.550000e+001  0.000000e+000
      vertex  1.849336e+002  1.030000e+002  0.000000e+000
      vertex  1.510384e+002  6.450000e+001  0.000000e+000
    endloop
  endfacet
  facet normal  0.000000e+000  0.000000e+000 -1.000000e+000
    outer loop
      vertex  1.510384e+002  6.450000e+001  0.000000e+000
      vertex  1.849336e+002  1.030000e+002  0.000000e+000
      vertex  1.849336e+002  4.700000e+001  0.000000e+000
    endloop
  endfacet
  facet normal  0.000000e+000 -1.000000e+000  0.000000e+000
    outer loop
      vertex  2.218333e+001  6.500000e+000 -2.500000e+001
      vertex  7.318333e+001  6.500000e+000 -2.500000e+001
      vertex  2.218333e+001  6.500000e+000  0.000000e+000
    endloop
  endfacet
  facet normal  0.000000e+000 -1.000000e+000  0.000000e+000
    outer loop
      vertex  2.218333e+001  6.500000e+000  0.000000e+000
      vertex  7.318333e+001  6.500000e+000 -2.500000e+001
      vertex  7.318333e+001  6.500000e+000  0.000000e+000
    endloop
  endfacet
  facet normal  9.999999e-001  0.000000e+000  0.000000e+000
    outer loop
      vertex  7.318333e+001  1.435000e+002 -2.500000e+001
      vertex  7.318333e+001  1.435000e+002  0.000000e+000
      vertex  7.318333e+001  6.500000e+000 -2.500000e+001
    endloop
  endfacet
  facet normal  9.999999e-001  0.000000e+000  0.000000e+000
    outer loop
      vertex  7.318333e+001  6.500000e+000 -2.500000e+001
      vertex  7.318333e+001  1.435000e+002  0.000000e+000
      vertex  7.318333e+001  6.500000e+000  0.000000e+000
    endloop
  endfacet
  facet normal  0.000000e+000  1.000000e+000  0.000000e+000
    outer loop
      vertex  7.318333e+001  1.435000e+002 -2.500000e+001
      vertex  2.218333e+001  1.435000e+002 -2.500000e+001
      vertex  7.318333e+001  1.435000e+002  0.000000e+000
    endloop
  endfacet
  facet normal  0.000000e+000  1.000000e+000  0.000000e+000
    outer loop
      vertex  7.318333e+001  1.435000e+002  0.000000e+000
      vertex  2.218333e+001  1.435000e+002 -2.500000e+001
      vertex  2.218333e+001  1.435000e+002  0.000000e+000
    endloop
  endfacet
  facet normal -9.999999e-001  0.000000e+000  0.000000e+000
    outer loop
      vertex  2.218333e+001  6.500000e+000 -2.500000e+001
      vertex  2.218333e+001  6.500000e+000  0.000000e+000
      vertex  2.218333e+001  1.435000e+002 -2.500000e+001
    endloop
  endfacet
  facet normal -9.999999e-001  0.000000e+000  0.000000e+000
    outer loop
      vertex  2.218333e+001  1.435000e+002 -2.500000e+001
      vertex  2.218333e+001  6.500000e+000  0.000000e+000
      vertex  2.218333e+001  1.435000e+002  0.000000e+000
    endloop
  endfacet
  facet normal  -0.000000e+000  0.000000e+000 -1.000000e+000
    outer loop
      vertex  2.218333e+001  1.435000e+002 -2.500000e+001
      vertex  7.318333e+001  1.435000e+002 -2.500000e+001
      vertex  2.218333e+001  6.500000e+000 -2.500000e+001
    endloop
  endfacet
  facet normal  0.000000e+000  0.000000e+000 -1.000000e+000
    outer loop
      vertex  2.218333e+001  6.500000e+000 -2.500000e+001
      vertex  7.318333e+001  1.435000e+002 -2.500000e+001
      vertex  7.318333e+001  6.500000e+000 -2.500000e+001
    endloop
  endfacet
  facet normal  0.000000e+000 -1.000000e+000  0.000000e+000
    outer loop
      vertex  1.080384e+002  6.450000e+001 -5.000000e-001
      vertex  1.510384e+002  6.450000e+001 -5.000000e-001
      vertex  1.080384e+002  6.450000e+001  0.000000e+000
    endloop
  endfacet
  facet normal  0.000000e+000 -1.000000e+000  0.000000e+000
    outer loop
      vertex  1.080384e+002  6.450000e+001  0.000000e+000
      vertex  1.510384e+002  6.450000e+001 -5.000000e-001
      vertex  1.510384e+002  6.450000e+001  0.000000e+000
    endloop
  endfacet
  facet normal  1.000000e+000  0.000000e+000  0.000000e+000
    outer loop
      vertex  1.510384e+002  8.550000e+001 -5.000000e-001
      vertex  1.510384e+002  8.550000e+001  0.000000e+000
      vertex  1.510384e+002  6.450000e+001 -5.000000e-001
    endloop
  endfacet
  facet normal  1.000000e+000  0.000000e+000  0.000000e+000
    outer loop
      vertex  1.510384e+002  6.450000e+001 -5.000000e-001
      vertex  1.510384e+002  8.550000e+001  0.000000e+000
      vertex  1.510384e+002  6.450000e+001  0.000000e+000
    endloop
  endfacet
  facet normal  0.000000e+000  1.000000e+000  0.000000e+000
    outer loop
      vertex  1.510384e+002  8.550000e+001 -5.000000e-001
      vertex  1.080384e+002  8.550000e+001 -5.000000e-001
      vertex  1.510384e+002  8.550000e+001  0.000000e+000
    endloop
  endfacet
  facet normal  0.000000e+000  1.000000e+000  0.000000e+000
    outer loop
      vertex  1.510384e+002  8.550000e+001  0.000000e+000
      vertex  1.080384e+002  8.550000e+001 -5.000000e-001
      vertex  1.080384e+002  8.550000e+001  0.000000e+000
    endloop
  endfacet
  facet normal -1.000000e+000  0.000000e+000  0.000000e+000
    outer loop
      vertex  1.080384e+002  6.450000e+001 -5.000000e-001
      vertex  1.080384e+002  6.450000e+001  0.000000e+000
      vertex  1.080384e+002  8.550000e+001 -5.000000e-001
    endloop
  endfacet
  facet normal -1.000000e+000  0.000000e+000  0.000000e+000
    outer loop
      vertex  1.080384e+002  8.550000e+001 -5.000000e-001
      vertex  1.080384e+002  6.450000e+001  0.000000e+000
      vertex  1.080384e+002  8.550000e+001  0.000000e+000
    endloop
  endfacet
  facet normal  -0.000000e+000  0.000000e+000 -1.000000e+000
    outer loop
      vertex  1.080384e+002  8.550000e+001 -5.000000e-001
      vertex  1.510384e+002  8.550000e+001 -5.000000e-001
      vertex  1.080384e+002  6.450000e+001 -5.000000e-001
    endloop
  endfacet
  facet normal  0.000000e+000  0.000000e+000 -1.000000e+000
    outer loop
      vertex  1.080384e+002  6.450000e+001 -5.000000e-001
      vertex  1.510384e+002  8.550000e+001 -5.000000e-001
      vertex  1.510384e+002  6.450000e+001 -5.000000e-001
    endloop
  endfacet
  facet normal  0.000000e+000 -9.999999e-001  0.000000e+000
    outer loop
      vertex  1.849336e+002  4.700000e+001 -5.000000e-001
      vertex  2.699336e+002  4.700000e+001 -5.000000e-001
      vertex  1.849336e+002  4.700000e+001  0.000000e+000
    endloop
  endfacet
  facet normal  0.000000e+000 -9.999999e-001  0.000000e+000
    outer loop
      vertex  1.849336e+002  4.700000e+001  0.000000e+000
      vertex  2.699336e+002  4.700000e+001 -5.000000e-001
      vertex  2.699336e+002  4.700000e+001  0.000000e+000
    endloop
  endfacet
  facet normal  1.000000e+000  0.000000e+000  0.000000e+000
    outer loop
      vertex  2.699336e+002  1.030000e+002 -5.000000e-001
      vertex  2.699336e+002  1.030000e+002  0.000000e+000
      vertex  2.699336e+002  4.700000e+001 -5.000000e-001
    endloop
  endfacet
  facet normal  1.000000e+000  0.000000e+000  0.000000e+000
    outer loop
      vertex  2.699336e+002  4.700000e+001 -5.000000e-001
      vertex  2.699336e+002  1.030000e+002  0.000000e+000
      vertex  2.699336e+002  4.700000e+001  0.000000e+000
    endloop
  endfacet
  facet normal  0.000000e+000  9.999999e-001  0.000000e+000
    outer loop
      vertex  2.699336e+002  1.030000e+002 -5.000000e-001
      vertex  1.849336e+002  1.030000e+002 -5.000000e-001
      vertex  2.699336e+002  1.030000e+002  0.000000e+000
    endloop
  endfacet
  facet normal  0.000000e+000  9.999999e-001  0.000000e+000
    outer loop
      vertex  2.699336e+002  1.030000e+002  0.000000e+000
      vertex  1.849336e+002  1.030000e+002 -5.000000e-001
      vertex  1.849336e+002  1.030000e+002  0.000000e+000
    endloop
  endfacet
  facet normal -1.000000e+000  0.000000e+000  0.000000e+000
    outer loop
      vertex  1.849336e+002  4.700000e+001 -5.000000e-001
      vertex  1.849336e+002  4.700000e+001  0.000000e+000
      vertex  1.849336e+002  1.030000e+002 -5.000000e-001
    endloop
  endfacet
  facet normal -1.000000e+000  0.000000e+000  0.000000e+000
    outer loop
      vertex  1.849336e+002  1.030000e+002 -5.000000e-001
      vertex  1.849336e+002  4.700000e+001  0.000000e+000
      vertex  1.849336e+002  1.030000e+002  0.000000e+000
    endloop
  endfacet
  facet normal  -0.000000e+000  0.000000e+000 -1.000000e+000
    outer loop
      vertex  1.849336e+002  1.030000e+002 -5.000000e-001
      vertex  2.699336e+002  1.030000e+002 -5.000000e-001
      vertex  1.849336e+002  4.700000e+001 -5.000000e-001
    endloop
  endfacet
  facet normal  0.000000e+000  0.000000e+000 -1.000000e+000
    outer loop
      vertex  1.849336e+002  4.700000e+001 -5.000000e-001
      vertex  2.699336e+002  1.030000e+002 -5.000000e-001
      vertex  2.699336e+002  4.700000e+001 -5.000000e-001
    endloop
  endfacet
  facet normal  -0.000000e+000  0.000000e+000  1.000000e+000
    outer loop
      vertex  2.800000e+002  1.500000e+002  5.000000e+000
      vertex  5.684342e-014  1.500000e+002  5.000000e+000
      vertex  1.749111e+002  1.393401e+002  5.000000e+000
    endloop
  endfacet
  facet normal  0.000000e+000  -0.000000e+000  1.000000e+000
    outer loop
      vertex  5.684342e-014  1.500000e+002  5.000000e+000
      vertex  1.011779e+002  1.153827e+002  5.000000e+000
      vertex  1.749111e+002  1.393401e+002  5.000000e+000
    endloop
  endfacet
  facet normal  0.000000e+000  -0.000000e+000  1.000000e+000
    outer loop
      vertex  2.293940e+002  9.519196e+001  5.000000e+000
      vertex  2.723940e+002  9.519196e+001  5.000000e+000
      vertex  2.800000e+002  1.500000e+002  5.000000e+000
    endloop
  endfacet
  facet normal  0.000000e+000  0.000000e+000  1.000000e+000
    outer loop
      vertex  2.293940e+002  9.519196e+001  5.000000e+000
      vertex  2.800000e+002  1.500000e+002  5.000000e+000
      vertex  1.768124e+002  1.387195e+002  5.000000e+000
    endloop
  endfacet
  facet normal  0.000000e+000  0.000000e+000  1.000000e+000
    outer loop
      vertex  2.293940e+002  9.519196e+001  5.000000e+000
      vertex  1.768124e+002  1.387195e+002  5.000000e+000
      vertex  2.223821e+002  7.599817e+001  5.000000e+000
    endloop
  endfacet
  facet normal  -0.000000e+000  0.000000e+000  1.000000e+000
    outer loop
      vertex  2.293940e+002  9.519196e+001  5.000000e+000
      vertex  2.223821e+002  7.599817e+001  5.000000e+000
      vertex  2.223795e+002  7.399817e+001  5.000000e+000
    endloop
  endfacet
  facet normal  0.000000e+000  0.000000e+000  1.000000e+000
    outer loop
      vertex  2.293940e+002  5.219196e+001  5.000000e+000
      vertex  2.293940e+002  9.519196e+001  5.000000e+000
      vertex  2.223795e+002  7.399817e+001  5.000000e+000
    endloop
  endfacet
  facet normal  0.000000e+000  0.000000e+000  1.000000e+000
    outer loop
      vertex  2.293940e+002  5.219196e+001  5.000000e+000
      vertex  2.223795e+002  7.399817e+001  5.000000e+000
      vertex  1.768097e+002  1.127676e+001  5.000000e+000
    endloop
  endfacet
  facet normal  0.000000e+000  0.000000e+000  1.000000e+000
    outer loop
      vertex  2.293940e+002  5.219196e+001  5.000000e+000
      vertex  1.768097e+002  1.127676e+001  5.000000e+000
      vertex  2.723940e+002  5.219196e+001  5.000000e+000
    endloop
  endfacet
  facet normal  0.000000e+000  0.000000e+000  1.000000e+000
    outer loop
      vertex  0.000000e+000  0.000000e+000  5.000000e+000
      vertex  1.749067e+002  1.066132e+001  5.000000e+000
      vertex  1.011733e+002  3.461878e+001  5.000000e+000
    endloop
  endfacet
  facet normal  0.000000e+000  0.000000e+000  1.000000e+000
    outer loop
      vertex  0.000000e+000  0.000000e+000  5.000000e+000
      vertex  1.011733e+002  3.461878e+001  5.000000e+000
      vertex  1.000000e+002  3.623848e+001  5.000000e+000
    endloop
  endfacet
  facet normal  0.000000e+000  -0.000000e+000  1.000000e+000
    outer loop
      vertex  0.000000e+000  0.000000e+000  5.000000e+000
      vertex  1.000000e+002  3.623848e+001  5.000000e+000
      vertex  1.000000e+002  1.137663e+002  5.000000e+000
    endloop
  endfacet
  facet normal  0.000000e+000  0.000000e+000  1.000000e+000
    outer loop
      vertex  0.000000e+000  0.000000e+000  5.000000e+000
      vertex  1.000000e+002  1.137663e+002  5.000000e+000
      vertex  5.684342e-014  1.500000e+002  5.000000e+000
    endloop
  endfacet
  facet normal  0.000000e+000  0.000000e+000  1.000000e+000
    outer loop
      vertex  2.800000e+002  0.000000e+000  5.000000e+000
      vertex  2.800000e+002  1.500000e+002  5.000000e+000
      vertex  2.723940e+002  9.519196e+001  5.000000e+000
    endloop
  endfacet
  facet normal  0.000000e+000  0.000000e+000  1.000000e+000
    outer loop
      vertex  2.800000e+002  0.000000e+000  5.000000e+000
      vertex  2.723940e+002  9.519196e+001  5.000000e+000
      vertex  2.723940e+002  5.219196e+001  5.000000e+000
    endloop
  endfacet
  facet normal  0.000000e+000  0.000000e+000  1.000000e+000
    outer loop
      vertex  2.800000e+002  0.000000e+000  5.000000e+000
      vertex  2.723940e+002  5.219196e+001  5.000000e+000
      vertex  1.768097e+002  1.127676e+001  5.000000e+000
    endloop
  endfacet
  facet normal  0.000000e+000  0.000000e+000  1.000000e+000
    outer loop
      vertex  2.800000e+002  0.000000e+000  5.000000e+000
      vertex  1.768097e+002  1.127676e+001  5.000000e+000
      vertex  1.749067e+002  1.066132e+001  5.000000e+000
    endloop
  endfacet
  facet normal  0.000000e+000  0.000000e+000  1.000000e+000
    outer loop
      vertex  2.800000e+002  0.000000e+000  5.000000e+000
      vertex  1.749067e+002  1.066132e+001  5.000000e+000
      vertex  0.000000e+000  0.000000e+000  5.000000e+000
    endloop
  endfacet
  facet normal  -0.000000e+000  0.000000e+000  1.000000e+000
    outer loop
      vertex  2.223821e+002  7.599817e+001  5.000000e+000
      vertex  1.599515e+002  7.599817e+001  5.000000e+000
      vertex  2.223795e+002  7.399817e+001  5.000000e+000
    endloop
  endfacet
  facet normal  0.000000e+000  0.000000e+000  1.000000e+000
    outer loop
      vertex  2.223795e+002  7.399817e+001  5.000000e+000
      vertex  1.599515e+002  7.599817e+001  5.000000e+000
      vertex  1.599515e+002  7.399817e+001  5.000000e+000
    endloop
  endfacet
  facet normal  -0.000000e+000  0.000000e+000  1.000000e+000
    outer loop
      vertex  1.575175e+002  7.065188e+001  5.000000e+000
      vertex  1.556154e+002  7.003384e+001  5.000000e+000
      vertex  1.768097e+002  1.127676e+001  5.000000e+000
    endloop
  endfacet
  facet normal  0.000000e+000  0.000000e+000  1.000000e+000
    outer loop
      vertex  1.768097e+002  1.127676e+001  5.000000e+000
      vertex  1.556154e+002  7.003384e+001  5.000000e+000
      vertex  1.749067e+002  1.066132e+001  5.000000e+000
    endloop
  endfacet
  facet normal  0.000000e+000  -0.000000e+000  1.000000e+000
    outer loop
      vertex  1.556190e+002  7.996511e+001  5.000000e+000
      vertex  1.575212e+002  7.934708e+001  5.000000e+000
      vertex  1.749111e+002  1.393401e+002  5.000000e+000
    endloop
  endfacet
  facet normal  0.000000e+000  0.000000e+000  1.000000e+000
    outer loop
      vertex  1.749111e+002  1.393401e+002  5.000000e+000
      vertex  1.575212e+002  7.934708e+001  5.000000e+000
      vertex  1.768124e+002  1.387195e+002  5.000000e+000
    endloop
  endfacet
  facet normal  0.000000e+000  -0.000000e+000  1.000000e+000
    outer loop
      vertex  1.749111e+002  1.393401e+002  5.000000e+000
      vertex  1.768124e+002  1.387195e+002  5.000000e+000
      vertex  2.800000e+002  1.500000e+002  5.000000e+000
    endloop
  endfacet
  facet normal  0.000000e+000  -0.000000e+000  9.999999e-001
    outer loop
      vertex  1.000000e+002  3.623848e+001  5.000000e+000
      vertex  1.011733e+002  3.461878e+001  5.000000e+000
      vertex  1.505052e+002  7.293267e+001  5.000000e+000
    endloop
  endfacet
  facet normal  0.000000e+000  0.000000e+000  1.000000e+000
    outer loop
      vertex  1.505052e+002  7.293267e+001  5.000000e+000
      vertex  1.011733e+002  3.461878e+001  5.000000e+000
      vertex  1.516808e+002  7.131464e+001  5.000000e+000
    endloop
  endfacet
  facet normal  0.000000e+000  0.000000e+000  1.000000e+000
    outer loop
      vertex  1.505074e+002  7.707053e+001  5.000000e+000
      vertex  1.516830e+002  7.868856e+001  5.000000e+000
      vertex  1.000000e+002  1.137663e+002  5.000000e+000
    endloop
  endfacet
  facet normal  -0.000000e+000  0.000000e+000  1.000000e+000
    outer loop
      vertex  1.000000e+002  1.137663e+002  5.000000e+000
      vertex  1.516830e+002  7.868856e+001  5.000000e+000
      vertex  1.011779e+002  1.153827e+002  5.000000e+000
    endloop
  endfacet
  facet normal  0.000000e+000  0.000000e+000  1.000000e+000
    outer loop
      vertex  1.000000e+002  1.137663e+002  5.000000e+000
      vertex  1.011779e+002  1.153827e+002  5.000000e+000
      vertex  5.684342e-014  1.500000e+002  5.000000e+000
    endloop
  endfacet
  facet normal  0.000000e+000  1.000000e+000  0.000000e+000
    outer loop
      vertex  2.293940e+002  9.519196e+001  5.500000e+000
      vertex  2.723940e+002  9.519196e+001  5.500000e+000
      vertex  2.293940e+002  9.519196e+001  5.000000e+000
    endloop
  endfacet
  facet normal  0.000000e+000  1.000000e+000  0.000000e+000
    outer loop
      vertex  2.293940e+002  9.519196e+001  5.000000e+000
      vertex  2.723940e+002  9.519196e+001  5.500000e+000
      vertex  2.723940e+002  9.519196e+001  5.000000e+000
    endloop
  endfacet
  facet normal  1.000000e+000  0.000000e+000  0.000000e+000
    outer loop
      vertex  2.723940e+002  5.219196e+001  5.500000e+000
      vertex  2.723940e+002  5.219196e+001  5.000000e+000
      vertex  2.723940e+002  9.519196e+001  5.500000e+000
    endloop
  endfacet
  facet normal  1.000000e+000  0.000000e+000  0.000000e+000
    outer loop
      vertex  2.723940e+002  9.519196e+001  5.500000e+000
      vertex  2.723940e+002  5.219196e+001  5.000000e+000
      vertex  2.723940e+002  9.519196e+001  5.000000e+000
    endloop
  endfacet
  facet normal  0.000000e+000 -1.000000e+000  0.000000e+000
    outer loop
      vertex  2.723940e+002  5.219196e+001  5.500000e+000
      vertex  2.293940e+002  5.219196e+001  5.500000e+000
      vertex  2.723940e+002  5.219196e+001  5.000000e+000
    endloop
  endfacet
  facet normal  0.000000e+000 -1.000000e+000  0.000000e+000
    outer loop
      vertex  2.723940e+002  5.219196e+001  5.000000e+000
      vertex  2.293940e+002  5.219196e+001  5.500000e+000
      vertex  2.293940e+002  5.219196e+001  5.000000e+000
    endloop
  endfacet
  facet normal -1.000000e+000  0.000000e+000  0.000000e+000
    outer loop
      vertex  2.293940e+002  9.519196e+001  5.500000e+000
      vertex  2.293940e+002  9.519196e+001  5.000000e+000
      vertex  2.293940e+002  5.219196e+001  5.500000e+000
    endloop
  endfacet
  facet normal -1.000000e+000  0.000000e+000  0.000000e+000
    outer loop
      vertex  2.293940e+002  5.219196e+001  5.500000e+000
      vertex  2.293940e+002  9.519196e+001  5.000000e+000
      vertex  2.293940e+002  5.219196e+001  5.000000e+000
    endloop
  endfacet
  facet normal  0.000000e+000  0.000000e+000  1.000000e+000
    outer loop
      vertex  2.293940e+002  5.219196e+001  5.500000e+000
      vertex  2.723940e+002  5.219196e+001  5.500000e+000
      vertex  2.293940e+002  9.519196e+001  5.500000e+000
    endloop
  endfacet
  facet normal  -0.000000e+000  0.000000e+000  1.000000e+000
    outer loop
      vertex  2.293940e+002  9.519196e+001  5.500000e+000
      vertex  2.723940e+002  5.219196e+001  5.500000e+000
      vertex  2.723940e+002  9.519196e+001  5.500000e+000
    endloop
  endfacet
  facet normal -9.510565e-001  3.090169e-001  0.000000e+000
    outer loop
      vertex  1.575212e+002  7.934708e+001  8.500000e+001
      vertex  1.768124e+002  1.387195e+002  8.500000e+001
      vertex  1.575212e+002  7.934708e+001  5.000000e+000
    endloop
  endfacet
  facet normal -9.510565e-001  3.090169e-001  0.000000e+000
    outer loop
      vertex  1.575212e+002  7.934708e+001  5.000000e+000
      vertex  1.768124e+002  1.387195e+002  8.500000e+001
      vertex  1.768124e+002  1.387195e+002  5.000000e+000
    endloop
  endfacet
  facet normal  9.510565e-001 -3.090169e-001  0.000000e+000
    outer loop
      vertex  1.556190e+002  7.996511e+001  8.500000e+001
      vertex  1.556190e+002  7.996511e+001  5.000000e+000
      vertex  1.749111e+002  1.393401e+002  8.500000e+001
    endloop
  endfacet
  facet normal  9.510565e-001 -3.090169e-001  0.000000e+000
    outer loop
      vertex  1.749111e+002  1.393401e+002  8.500000e+001
      vertex  1.556190e+002  7.996511e+001  5.000000e+000
      vertex  1.749111e+002  1.393401e+002  5.000000e+000
    endloop
  endfacet
  facet normal -5.877853e-001 -8.090170e-001  0.000000e+000
    outer loop
      vertex  1.516830e+002  7.868856e+001  8.500000e+001
      vertex  1.011779e+002  1.153827e+002  8.500000e+001
      vertex  1.516830e+002  7.868856e+001  5.000000e+000
    endloop
  endfacet
  facet normal -5.877853e-001 -8.090170e-001  0.000000e+000
    outer loop
      vertex  1.516830e+002  7.868856e+001  5.000000e+000
      vertex  1.011779e+002  1.153827e+002  8.500000e+001
      vertex  1.011779e+002  1.153827e+002  5.000000e+000
    endloop
  endfacet
  facet normal  5.877852e-001  8.090170e-001  -0.000000e+000
    outer loop
      vertex  1.505074e+002  7.707053e+001  8.500000e+001
      vertex  1.505074e+002  7.707053e+001  5.000000e+000
      vertex  1.000000e+002  1.137663e+002  8.500000e+001
    endloop
  endfacet
  facet normal  5.877852e-001  8.090170e-001  0.000000e+000
    outer loop
      vertex  1.000000e+002  1.137663e+002  8.500000e+001
      vertex  1.505074e+002  7.707053e+001  5.000000e+000
      vertex  1.000000e+002  1.137663e+002  5.000000e+000
    endloop
  endfacet
  facet normal  5.877853e-001 -8.090169e-001  0.000000e+000
    outer loop
      vertex  1.505052e+002  7.293267e+001  8.500000e+001
      vertex  1.000000e+002  3.623848e+001  8.500000e+001
      vertex  1.505052e+002  7.293267e+001  5.000000e+000
    endloop
  endfacet
  facet normal  5.877853e-001 -8.090169e-001  0.000000e+000
    outer loop
      vertex  1.505052e+002  7.293267e+001  5.000000e+000
      vertex  1.000000e+002  3.623848e+001  8.500000e+001
      vertex  1.000000e+002  3.623848e+001  5.000000e+000
    endloop
  endfacet
  facet normal -5.877853e-001  8.090169e-001  0.000000e+000
    outer loop
      vertex  1.516808e+002  7.131464e+001  8.500000e+001
      vertex  1.516808e+002  7.131464e+001  5.000000e+000
      vertex  1.011733e+002  3.461878e+001  8.500000e+001
    endloop
  endfacet
  facet normal -5.877853e-001  8.090169e-001  0.000000e+000
    outer loop
      vertex  1.011733e+002  3.461878e+001  8.500000e+001
      vertex  1.516808e+002  7.131464e+001  5.000000e+000
      vertex  1.011733e+002  3.461878e+001  5.000000e+000
    endloop
  endfacet
  facet normal  9.510565e-001  3.090168e-001  0.000000e+000
    outer loop
      vertex  1.556154e+002  7.003384e+001  8.500000e+001
      vertex  1.749067e+002  1.066132e+001  8.500000e+001
      vertex  1.556154e+002  7.003384e+001  5.000000e+000
    endloop
  endfacet
  facet normal  9.510565e-001  3.090168e-001  0.000000e+000
    outer loop
      vertex  1.556154e+002  7.003384e+001  5.000000e+000
      vertex  1.749067e+002  1.066132e+001  8.500000e+001
      vertex  1.749067e+002  1.066132e+001  5.000000e+000
    endloop
  endfacet
  facet normal -9.510565e-001 -3.090170e-001  0.000000e+000
    outer loop
      vertex  1.575175e+002  7.065188e+001  8.500000e+001
      vertex  1.575175e+002  7.065188e+001  5.000000e+000
      vertex  1.768097e+002  1.127676e+001  8.500000e+001
    endloop
  endfacet
  facet normal -9.510565e-001 -3.090170e-001  -0.000000e+000
    outer loop
      vertex  1.768097e+002  1.127676e+001  8.500000e+001
      vertex  1.575175e+002  7.065188e+001  5.000000e+000
      vertex  1.768097e+002  1.127676e+001  5.000000e+000
    endloop
  endfacet
  facet normal -1.000000e+000  0.000000e+000  0.000000e+000
    outer loop
      vertex  1.000000e+002  1.137663e+002  5.000000e+000
      vertex  1.000000e+002  3.623848e+001  5.000000e+000
      vertex  1.000000e+002  1.137663e+002  8.500000e+001
    endloop
  endfacet
  facet normal -1.000000e+000  -0.000000e+000  0.000000e+000
    outer loop
      vertex  1.000000e+002  1.137663e+002  8.500000e+001
      vertex  1.000000e+002  3.623848e+001  5.000000e+000
      vertex  1.000000e+002  3.623848e+001  8.500000e+001
    endloop
  endfacet
  facet normal -3.090170e-001  9.510565e-001  0.000000e+000
    outer loop
      vertex  1.749111e+002  1.393401e+002  5.000000e+000
      vertex  1.011779e+002  1.153827e+002  5.000000e+000
      vertex  1.749111e+002  1.393401e+002  8.500000e+001
    endloop
  endfacet
  facet normal -3.090170e-001  9.510565e-001  0.000000e+000
    outer loop
      vertex  1.749111e+002  1.393401e+002  8.500000e+001
      vertex  1.011779e+002  1.153827e+002  5.000000e+000
      vertex  1.011779e+002  1.153827e+002  8.500000e+001
    endloop
  endfacet
  facet normal -3.090170e-001 -9.510565e-001  0.000000e+000
    outer loop
      vertex  1.011733e+002  3.461878e+001  5.000000e+000
      vertex  1.749067e+002  1.066132e+001  5.000000e+000
      vertex  1.011733e+002  3.461878e+001  8.500000e+001
    endloop
  endfacet
  facet normal -3.090170e-001 -9.510565e-001  0.000000e+000
    outer loop
      vertex  1.011733e+002  3.461878e+001  8.500000e+001
      vertex  1.749067e+002  1.066132e+001  5.000000e+000
      vertex  1.749067e+002  1.066132e+001  8.500000e+001
    endloop
  endfacet
  facet normal  8.090169e-001 -5.877854e-001  0.000000e+000
    outer loop
      vertex  1.768097e+002  1.127676e+001  5.000000e+000
      vertex  2.223795e+002  7.399817e+001  5.000000e+000
      vertex  1.768097e+002  1.127676e+001  8.500000e+001
    endloop
  endfacet
  facet normal  8.090169e-001 -5.877854e-001  0.000000e+000
    outer loop
      vertex  1.768097e+002  1.127676e+001  8.500000e+001
      vertex  2.223795e+002  7.399817e+001  5.000000e+000
      vertex  2.223795e+002  7.399817e+001  8.500000e+001
    endloop
  endfacet
  facet normal  8.090170e-001  5.877852e-001  0.000000e+000
    outer loop
      vertex  2.223821e+002  7.599817e+001  5.000000e+000
      vertex  1.768124e+002  1.387195e+002  5.000000e+000
      vertex  2.223821e+002  7.599817e+001  8.500000e+001
    endloop
  endfacet
  facet normal  8.090170e-001  5.877852e-001  0.000000e+000
    outer loop
      vertex  2.223821e+002  7.599817e+001  8.500000e+001
      vertex  1.768124e+002  1.387195e+002  5.000000e+000
      vertex  1.768124e+002  1.387195e+002  8.500000e+001
    endloop
  endfacet
  facet normal  0.000000e+000  0.000000e+000  1.000000e+000
    outer loop
      vertex  1.575212e+002  7.934708e+001  8.500000e+001
      vertex  2.223821e+002  7.599817e+001  8.500000e+001
      vertex  1.768124e+002  1.387195e+002  8.500000e+001
    endloop
  endfacet
  facet normal  -0.000000e+000  0.000000e+000  1.000000e+000
    outer loop
      vertex  2.223795e+002  7.399817e+001  8.500000e+001
      vertex  1.575175e+002  7.065188e+001  8.500000e+001
      vertex  1.768097e+002  1.127676e+001  8.500000e+001
    endloop
  endfacet
  facet normal  -0.000000e+000  -0.000000e+000  1.000000e+000
    outer loop
      vertex  1.505052e+002  7.293267e+001  8.500000e+001
      vertex  1.516808e+002  7.131464e+001  8.500000e+001
      vertex  1.575175e+002  7.065188e+001  8.500000e+001
    endloop
  endfacet
  facet normal  0.000000e+000  -0.000000e+000  9.999999e-001
    outer loop
      vertex  1.505052e+002  7.293267e+001  8.500000e+001
      vertex  1.575175e+002  7.065188e+001  8.500000e+001
      vertex  2.223795e+002  7.399817e+001  8.500000e+001
    endloop
  endfacet
  facet normal  0.000000e+000  0.000000e+000  1.000000e+000
    outer loop
      vertex  1.505052e+002  7.293267e+001  8.500000e+001
      vertex  2.223795e+002  7.399817e+001  8.500000e+001
      vertex  1.599515e+002  7.399817e+001  8.500000e+001
    endloop
  endfacet
  facet normal  0.000000e+000  -0.000000e+000  1.000000e+000
    outer loop
      vertex  1.505052e+002  7.293267e+001  8.500000e+001
      vertex  1.599515e+002  7.399817e+001  8.500000e+001
      vertex  1.599515e+002  7.599817e+001  8.500000e+001
    endloop
  endfacet
  facet normal  0.000000e+000  0.000000e+000  1.000000e+000
    outer loop
      vertex  1.505052e+002  7.293267e+001  8.500000e+001
      vertex  1.599515e+002  7.599817e+001  8.500000e+001
      vertex  1.505074e+002  7.707053e+001  8.500000e+001
    endloop
  endfacet
  facet normal  0.000000e+000  0.000000e+000  1.000000e+000
    outer loop
      vertex  1.505074e+002  7.707053e+001  8.500000e+001
      vertex  1.000000e+002  1.137663e+002  8.500000e+001
      vertex  1.505052e+002  7.293267e+001  8.500000e+001
    endloop
  endfacet
  facet normal  0.000000e+000  0.000000e+000  1.000000e+000
    outer loop
      vertex  1.505052e+002  7.293267e+001  8.500000e+001
      vertex  1.000000e+002  1.137663e+002  8.500000e+001
      vertex  1.000000e+002  3.623848e+001  8.500000e+001
    endloop
  endfacet
  facet normal  0.000000e+000  0.000000e+000  1.000000e+000
    outer loop
      vertex  1.011733e+002  3.461878e+001  8.500000e+001
      vertex  1.749067e+002  1.066132e+001  8.500000e+001
      vertex  1.516808e+002  7.131464e+001  8.500000e+001
    endloop
  endfacet
  facet normal  0.000000e+000  0.000000e+000  1.000000e+000
    outer loop
      vertex  1.516808e+002  7.131464e+001  8.500000e+001
      vertex  1.749067e+002  1.066132e+001  8.500000e+001
      vertex  1.556154e+002  7.003384e+001  8.500000e+001
    endloop
  endfacet
  facet normal  0.000000e+000  -0.000000e+000  1.000000e+000
    outer loop
      vertex  1.516808e+002  7.131464e+001  8.500000e+001
      vertex  1.556154e+002  7.003384e+001  8.500000e+001
      vertex  1.575175e+002  7.065188e+001  8.500000e+001
    endloop
  endfacet
  facet normal  -0.000000e+000  0.000000e+000  1.000000e+000
    outer loop
      vertex  1.575212e+002  7.934708e+001  8.500000e+001
      vertex  1.516830e+002  7.868856e+001  8.500000e+001
      vertex  2.223821e+002  7.599817e+001  8.500000e+001
    endloop
  endfacet
  facet normal  0.000000e+000  0.000000e+000  1.000000e+000
    outer loop
      vertex  2.223821e+002  7.599817e+001  8.500000e+001
      vertex  1.516830e+002  7.868856e+001  8.500000e+001
      vertex  1.505074e+002  7.707053e+001  8.500000e+001
    endloop
  endfacet
  facet normal  0.000000e+000  0.000000e+000  1.000000e+000
    outer loop
      vertex  2.223821e+002  7.599817e+001  8.500000e+001
      vertex  1.505074e+002  7.707053e+001  8.500000e+001
      vertex  1.599515e+002  7.599817e+001  8.500000e+001
    endloop
  endfacet
  facet normal  -0.000000e+000  0.000000e+000  1.000000e+000
    outer loop
      vertex  1.749111e+002  1.393401e+002  8.500000e+001
      vertex  1.011779e+002  1.153827e+002  8.500000e+001
      vertex  1.556190e+002  7.996511e+001  8.500000e+001
    endloop
  endfacet
  facet normal  0.000000e+000  0.000000e+000  1.000000e+000
    outer loop
      vertex  1.556190e+002  7.996511e+001  8.500000e+001
      vertex  1.011779e+002  1.153827e+002  8.500000e+001
      vertex  1.516830e+002  7.868856e+001  8.500000e+001
    endloop
  endfacet
  facet normal  0.000000e+000  0.000000e+000  1.000000e+000
    outer loop
      vertex  1.556190e+002  7.996511e+001  8.500000e+001
      vertex  1.516830e+002  7.868856e+001  8.500000e+001
      vertex  1.575212e+002  7.934708e+001  8.500000e+001
    endloop
  endfacet
  facet normal  3.090169e-001  9.510565e-001  -0.000000e+000
    outer loop
      vertex  1.575212e+002  7.934708e+001  8.500000e+001
      vertex  1.575212e+002  7.934708e+001  5.000000e+000
      vertex  1.556190e+002  7.996511e+001  8.500000e+001
    endloop
  endfacet
  facet normal  3.090169e-001  9.510565e-001  0.000000e+000
    outer loop
      vertex  1.556190e+002  7.996511e+001  8.500000e+001
      vertex  1.575212e+002  7.934708e+001  5.000000e+000
      vertex  1.556190e+002  7.996511e+001  5.000000e+000
    endloop
  endfacet
  facet normal -8.090177e-001  5.877842e-001  0.000000e+000
    outer loop
      vertex  1.516830e+002  7.868856e+001  8.500000e+001
      vertex  1.516830e+002  7.868856e+001  5.000000e+000
      vertex  1.505074e+002  7.707053e+001  8.500000e+001
    endloop
  endfacet
  facet normal -8.090177e-001  5.877842e-001  0.000000e+000
    outer loop
      vertex  1.505074e+002  7.707053e+001  8.500000e+001
      vertex  1.516830e+002  7.868856e+001  5.000000e+000
      vertex  1.505074e+002  7.707053e+001  5.000000e+000
    endloop
  endfacet
  facet normal -8.090177e-001 -5.877842e-001  0.000000e+000
    outer loop
      vertex  1.505052e+002  7.293267e+001  8.500000e+001
      vertex  1.505052e+002  7.293267e+001  5.000000e+000
      vertex  1.516808e+002  7.131464e+001  8.500000e+001
    endloop
  endfacet
  facet normal -8.090177e-001 -5.877842e-001  -0.000000e+000
    outer loop
      vertex  1.516808e+002  7.131464e+001  8.500000e+001
      vertex  1.505052e+002  7.293267e+001  5.000000e+000
      vertex  1.516808e+002  7.131464e+001  5.000000e+000
    endloop
  endfacet
  facet normal  3.090191e-001 -9.510558e-001  0.000000e+000
    outer loop
      vertex  1.556154e+002  7.003384e+001  8.500000e+001
      vertex  1.556154e+002  7.003384e+001  5.000000e+000
      vertex  1.575175e+002  7.065188e+001  8.500000e+001
    endloop
  endfacet
  facet normal  3.090191e-001 -9.510558e-001  0.000000e+000
    outer loop
      vertex  1.575175e+002  7.065188e+001  8.500000e+001
      vertex  1.556154e+002  7.003384e+001  5.000000e+000
      vertex  1.575175e+002  7.065188e+001  5.000000e+000
    endloop
  endfacet
  facet normal  0.000000e+000  1.000000e+000  0.000000e+000
    outer loop
      vertex  1.599515e+002  7.399817e+001  8.500000e+001
      vertex  2.223795e+002  7.399817e+001  8.500000e+001
      vertex  1.599515e+002  7.399817e+001  5.000000e+000
    endloop
  endfacet
  facet normal  0.000000e+000  1.000000e+000  0.000000e+000
    outer loop
      vertex  1.599515e+002  7.399817e+001  5.000000e+000
      vertex  2.223795e+002  7.399817e+001  8.500000e+001
      vertex  2.223795e+002  7.399817e+001  5.000000e+000
    endloop
  endfacet
  facet normal  0.000000e+000 -1.000000e+000  0.000000e+000
    outer loop
      vertex  1.599515e+002  7.599817e+001  8.500000e+001
      vertex  1.599515e+002  7.599817e+001  5.000000e+000
      vertex  2.223821e+002  7.599817e+001  8.500000e+001
    endloop
  endfacet
  facet normal  0.000000e+000 -1.000000e+000  -0.000000e+000
    outer loop
      vertex  2.223821e+002  7.599817e+001  8.500000e+001
      vertex  1.599515e+002  7.599817e+001  5.000000e+000
      vertex  2.223821e+002  7.599817e+001  5.000000e+000
    endloop
  endfacet
  facet normal  1.000000e+000  0.000000e+000  0.000000e+000
    outer loop
      vertex  1.599515e+002  7.399817e+001  8.500000e+001
      vertex  1.599515e+002  7.399817e+001  5.000000e+000
      vertex  1.599515e+002  7.599817e+001  8.500000e+001
    endloop
  endfacet
  facet normal  1.000000e+000  0.000000e+000  0.000000e+000
    outer loop
      vertex  1.599515e+002  7.599817e+001  8.500000e+001
      vertex  1.599515e+002  7.399817e+001  5.000000e+000
      vertex  1.599515e+002  7.599817e+001  5.000000e+000
    endloop
  endfacet
  facet normal -1.000000e+000  3.789561e-016  0.000000e+000
    outer loop
      vertex  5.684342e-014  1.500000e+002  5.000000e+000
      vertex  5.684342e-014  1.500000e+002  0.000000e+000
      vertex  0.000000e+000  0.000000e+000  5.000000e+000
    endloop
  endfacet
  facet normal -1.000000e+000  3.789561e-016  0.000000e+000
    outer loop
      vertex  0.000000e+000  0.000000e+000  5.000000e+000
      vertex  5.684342e-014  1.500000e+002  0.000000e+000
      vertex  0.000000e+000  0.000000e+000  0.000000e+000
    endloop
  endfacet
  facet normal  0.000000e+000  1.000000e+000  -0.000000e+000
    outer loop
      vertex  2.800000e+002  1.500000e+002  5.000000e+000
      vertex  2.800000e+002  1.500000e+002  0.000000e+000
      vertex  5.684342e-014  1.500000e+002  5.000000e+000
    endloop
  endfacet
  facet normal  0.000000e+000  1.000000e+000  0.000000e+000
    outer loop
      vertex  5.684342e-014  1.500000e+002  5.000000e+000
      vertex  2.800000e+002  1.500000e+002  0.000000e+000
      vertex  5.684342e-014  1.500000e+002  0.000000e+000
    endloop
  endfacet
  facet normal  1.000000e+000  0.000000e+000  0.000000e+000
    outer loop
      vertex  2.800000e+002  0.000000e+000  5.000000e+000
      vertex  2.800000e+002  0.000000e+000  0.000000e+000
      vertex  2.800000e+002  1.500000e+002  5.000000e+000
    endloop
  endfacet
  facet normal  1.000000e+000  0.000000e+000  0.000000e+000
    outer loop
      vertex  2.800000e+002  1.500000e+002  5.000000e+000
      vertex  2.800000e+002  0.000000e+000  0.000000e+000
      vertex  2.800000e+002  1.500000e+002  0.000000e+000
    endloop
  endfacet
  facet normal  0.000000e+000 -1.000000e+000  0.000000e+000
    outer loop
      vertex  0.000000e+000  0.000000e+000  5.000000e+000
      vertex  0.000000e+000  0.000000e+000  0.000000e+000
      vertex  2.800000e+002  0.000000e+000  5.000000e+000
    endloop
  endfacet
  facet normal  0.000000e+000 -1.000000e+000  -0.000000e+000
    outer loop
      vertex  2.800000e+002  0.000000e+000  5.000000e+000
      vertex  0.000000e+000  0.000000e+000  0.000000e+000
      vertex  2.800000e+002  0.000000e+000  0.000000e+000
    endloop
  endfacet
endsolid CATIA STL
