G04 EAGLE Gerber RS-274X export*
G75*
%MOMM*%
%FSLAX34Y34*%
%LPD*%
%INTop Copper*%
%IPPOS*%
%AMOC8*
5,1,8,0,0,1.08239X$1,22.5*%
G01*
%ADD10C,0.130000*%
%ADD11C,0.152400*%
%ADD12C,0.130000*%
%ADD13P,1.429621X8X202.500000*%
%ADD14R,0.800000X0.900000*%
%ADD15P,1.649562X8X22.500000*%
%ADD16C,1.524000*%
%ADD17R,0.800000X0.800000*%
%ADD18R,1.000000X1.400000*%
%ADD19C,2.247900*%
%ADD20C,0.756400*%
%ADD21C,2.500000*%
%ADD22C,0.508000*%
%ADD23C,2.000000*%


D10*
X50000Y708000D02*
X50000Y680500D01*
X543000Y680500D02*
X543000Y708000D01*
X542350Y700000D02*
X50650Y700000D01*
X76000Y703192D01*
X76000Y696808D01*
X50650Y700000D01*
X76000Y701300D01*
X76000Y698700D02*
X50650Y700000D01*
X76000Y702600D01*
X76000Y697400D02*
X50650Y700000D01*
X517000Y703192D02*
X542350Y700000D01*
X517000Y703192D02*
X517000Y696808D01*
X542350Y700000D01*
X517000Y701300D01*
X517000Y698700D02*
X542350Y700000D01*
X517000Y702600D01*
X517000Y697400D02*
X542350Y700000D01*
D11*
X269054Y722763D02*
X265441Y710119D01*
X274472Y710119D01*
X271763Y713732D02*
X271763Y706507D01*
X284685Y713732D02*
X290104Y713732D01*
X284685Y713732D02*
X284567Y713734D01*
X284449Y713740D01*
X284331Y713749D01*
X284214Y713763D01*
X284097Y713780D01*
X283980Y713801D01*
X283865Y713826D01*
X283750Y713855D01*
X283636Y713888D01*
X283524Y713924D01*
X283413Y713964D01*
X283303Y714007D01*
X283194Y714054D01*
X283087Y714104D01*
X282982Y714159D01*
X282879Y714216D01*
X282778Y714277D01*
X282678Y714341D01*
X282581Y714408D01*
X282486Y714478D01*
X282394Y714552D01*
X282303Y714628D01*
X282216Y714708D01*
X282131Y714790D01*
X282049Y714875D01*
X281969Y714962D01*
X281893Y715053D01*
X281819Y715145D01*
X281749Y715240D01*
X281682Y715337D01*
X281618Y715437D01*
X281557Y715538D01*
X281500Y715641D01*
X281445Y715746D01*
X281395Y715853D01*
X281348Y715962D01*
X281305Y716072D01*
X281265Y716183D01*
X281229Y716295D01*
X281196Y716409D01*
X281167Y716524D01*
X281142Y716639D01*
X281121Y716756D01*
X281104Y716873D01*
X281090Y716990D01*
X281081Y717108D01*
X281075Y717226D01*
X281073Y717344D01*
X281073Y718247D01*
X281072Y718247D02*
X281074Y718380D01*
X281080Y718512D01*
X281090Y718644D01*
X281103Y718776D01*
X281121Y718908D01*
X281142Y719038D01*
X281167Y719169D01*
X281196Y719298D01*
X281229Y719426D01*
X281265Y719554D01*
X281305Y719680D01*
X281349Y719805D01*
X281397Y719929D01*
X281448Y720051D01*
X281503Y720172D01*
X281561Y720291D01*
X281623Y720409D01*
X281688Y720524D01*
X281757Y720638D01*
X281828Y720749D01*
X281904Y720858D01*
X281982Y720965D01*
X282063Y721070D01*
X282148Y721172D01*
X282235Y721272D01*
X282325Y721369D01*
X282418Y721464D01*
X282514Y721555D01*
X282612Y721644D01*
X282713Y721730D01*
X282817Y721813D01*
X282923Y721893D01*
X283031Y721969D01*
X283141Y722043D01*
X283254Y722113D01*
X283368Y722180D01*
X283485Y722243D01*
X283603Y722303D01*
X283723Y722360D01*
X283845Y722413D01*
X283968Y722462D01*
X284092Y722508D01*
X284218Y722550D01*
X284345Y722588D01*
X284473Y722623D01*
X284602Y722654D01*
X284731Y722681D01*
X284862Y722704D01*
X284993Y722724D01*
X285125Y722739D01*
X285257Y722751D01*
X285389Y722759D01*
X285522Y722763D01*
X285654Y722763D01*
X285787Y722759D01*
X285919Y722751D01*
X286051Y722739D01*
X286183Y722724D01*
X286314Y722704D01*
X286445Y722681D01*
X286574Y722654D01*
X286703Y722623D01*
X286831Y722588D01*
X286958Y722550D01*
X287084Y722508D01*
X287208Y722462D01*
X287331Y722413D01*
X287453Y722360D01*
X287573Y722303D01*
X287691Y722243D01*
X287808Y722180D01*
X287922Y722113D01*
X288035Y722043D01*
X288145Y721969D01*
X288253Y721893D01*
X288359Y721813D01*
X288463Y721730D01*
X288564Y721644D01*
X288662Y721555D01*
X288758Y721464D01*
X288851Y721369D01*
X288941Y721272D01*
X289028Y721172D01*
X289113Y721070D01*
X289194Y720965D01*
X289272Y720858D01*
X289348Y720749D01*
X289419Y720638D01*
X289488Y720524D01*
X289553Y720409D01*
X289615Y720291D01*
X289673Y720172D01*
X289728Y720051D01*
X289779Y719929D01*
X289827Y719805D01*
X289871Y719680D01*
X289911Y719554D01*
X289947Y719426D01*
X289980Y719298D01*
X290009Y719169D01*
X290034Y719038D01*
X290055Y718908D01*
X290073Y718776D01*
X290086Y718644D01*
X290096Y718512D01*
X290102Y718380D01*
X290104Y718247D01*
X290104Y713732D01*
X290102Y713557D01*
X290096Y713383D01*
X290085Y713209D01*
X290070Y713035D01*
X290051Y712861D01*
X290028Y712688D01*
X290001Y712516D01*
X289969Y712344D01*
X289934Y712173D01*
X289894Y712003D01*
X289850Y711834D01*
X289802Y711666D01*
X289750Y711499D01*
X289694Y711334D01*
X289634Y711170D01*
X289571Y711007D01*
X289503Y710847D01*
X289431Y710687D01*
X289356Y710530D01*
X289276Y710374D01*
X289193Y710221D01*
X289107Y710069D01*
X289016Y709920D01*
X288922Y709773D01*
X288825Y709628D01*
X288724Y709485D01*
X288620Y709345D01*
X288512Y709208D01*
X288401Y709073D01*
X288287Y708941D01*
X288170Y708812D01*
X288049Y708685D01*
X287926Y708562D01*
X287799Y708441D01*
X287670Y708324D01*
X287538Y708210D01*
X287403Y708099D01*
X287266Y707991D01*
X287126Y707887D01*
X286983Y707786D01*
X286838Y707689D01*
X286691Y707595D01*
X286542Y707504D01*
X286390Y707418D01*
X286237Y707335D01*
X286081Y707255D01*
X285924Y707180D01*
X285764Y707108D01*
X285604Y707040D01*
X285441Y706977D01*
X285277Y706917D01*
X285112Y706861D01*
X284945Y706809D01*
X284777Y706761D01*
X284608Y706717D01*
X284438Y706677D01*
X284267Y706642D01*
X284095Y706610D01*
X283923Y706583D01*
X283750Y706560D01*
X283576Y706541D01*
X283402Y706526D01*
X283228Y706515D01*
X283054Y706509D01*
X282879Y706507D01*
X296078Y706507D02*
X296078Y707410D01*
X296981Y707410D01*
X296981Y706507D01*
X296078Y706507D01*
X302956Y706507D02*
X307472Y706507D01*
X307605Y706509D01*
X307737Y706515D01*
X307869Y706525D01*
X308001Y706538D01*
X308133Y706556D01*
X308263Y706577D01*
X308394Y706602D01*
X308523Y706631D01*
X308651Y706664D01*
X308779Y706700D01*
X308905Y706740D01*
X309030Y706784D01*
X309154Y706832D01*
X309276Y706883D01*
X309397Y706938D01*
X309516Y706996D01*
X309634Y707058D01*
X309749Y707123D01*
X309863Y707192D01*
X309974Y707263D01*
X310083Y707339D01*
X310190Y707417D01*
X310295Y707498D01*
X310397Y707583D01*
X310497Y707670D01*
X310594Y707760D01*
X310689Y707853D01*
X310780Y707949D01*
X310869Y708047D01*
X310955Y708148D01*
X311038Y708252D01*
X311118Y708358D01*
X311194Y708466D01*
X311268Y708576D01*
X311338Y708689D01*
X311405Y708803D01*
X311468Y708920D01*
X311528Y709038D01*
X311585Y709158D01*
X311638Y709280D01*
X311687Y709403D01*
X311733Y709527D01*
X311775Y709653D01*
X311813Y709780D01*
X311848Y709908D01*
X311879Y710037D01*
X311906Y710166D01*
X311929Y710297D01*
X311949Y710428D01*
X311964Y710560D01*
X311976Y710692D01*
X311984Y710824D01*
X311988Y710957D01*
X311988Y711089D01*
X311984Y711222D01*
X311976Y711354D01*
X311964Y711486D01*
X311949Y711618D01*
X311929Y711749D01*
X311906Y711880D01*
X311879Y712009D01*
X311848Y712138D01*
X311813Y712266D01*
X311775Y712393D01*
X311733Y712519D01*
X311687Y712643D01*
X311638Y712766D01*
X311585Y712888D01*
X311528Y713008D01*
X311468Y713126D01*
X311405Y713243D01*
X311338Y713357D01*
X311268Y713470D01*
X311194Y713580D01*
X311118Y713688D01*
X311038Y713794D01*
X310955Y713898D01*
X310869Y713999D01*
X310780Y714097D01*
X310689Y714193D01*
X310594Y714286D01*
X310497Y714376D01*
X310397Y714463D01*
X310295Y714548D01*
X310190Y714629D01*
X310083Y714707D01*
X309974Y714783D01*
X309863Y714854D01*
X309749Y714923D01*
X309634Y714988D01*
X309516Y715050D01*
X309397Y715108D01*
X309276Y715163D01*
X309154Y715214D01*
X309030Y715262D01*
X308905Y715306D01*
X308779Y715346D01*
X308651Y715382D01*
X308523Y715415D01*
X308394Y715444D01*
X308263Y715469D01*
X308133Y715490D01*
X308001Y715508D01*
X307869Y715521D01*
X307737Y715531D01*
X307605Y715537D01*
X307472Y715539D01*
X308375Y722763D02*
X302956Y722763D01*
X308375Y722763D02*
X308494Y722761D01*
X308614Y722755D01*
X308733Y722745D01*
X308851Y722731D01*
X308970Y722714D01*
X309087Y722692D01*
X309204Y722667D01*
X309319Y722637D01*
X309434Y722604D01*
X309548Y722567D01*
X309660Y722527D01*
X309771Y722482D01*
X309880Y722434D01*
X309988Y722383D01*
X310094Y722328D01*
X310198Y722269D01*
X310300Y722207D01*
X310400Y722142D01*
X310498Y722073D01*
X310594Y722001D01*
X310687Y721926D01*
X310777Y721849D01*
X310865Y721768D01*
X310950Y721684D01*
X311032Y721597D01*
X311112Y721508D01*
X311188Y721416D01*
X311262Y721322D01*
X311332Y721225D01*
X311399Y721127D01*
X311463Y721026D01*
X311523Y720922D01*
X311580Y720817D01*
X311633Y720710D01*
X311683Y720602D01*
X311729Y720492D01*
X311771Y720380D01*
X311810Y720267D01*
X311845Y720153D01*
X311876Y720038D01*
X311904Y719921D01*
X311927Y719804D01*
X311947Y719687D01*
X311963Y719568D01*
X311975Y719449D01*
X311983Y719330D01*
X311987Y719211D01*
X311987Y719091D01*
X311983Y718972D01*
X311975Y718853D01*
X311963Y718734D01*
X311947Y718615D01*
X311927Y718498D01*
X311904Y718381D01*
X311876Y718264D01*
X311845Y718149D01*
X311810Y718035D01*
X311771Y717922D01*
X311729Y717810D01*
X311683Y717700D01*
X311633Y717592D01*
X311580Y717485D01*
X311523Y717380D01*
X311463Y717276D01*
X311399Y717175D01*
X311332Y717077D01*
X311262Y716980D01*
X311188Y716886D01*
X311112Y716794D01*
X311032Y716705D01*
X310950Y716618D01*
X310865Y716534D01*
X310777Y716453D01*
X310687Y716376D01*
X310594Y716301D01*
X310498Y716229D01*
X310400Y716160D01*
X310300Y716095D01*
X310198Y716033D01*
X310094Y715974D01*
X309988Y715919D01*
X309880Y715868D01*
X309771Y715820D01*
X309660Y715775D01*
X309548Y715735D01*
X309434Y715698D01*
X309319Y715665D01*
X309204Y715635D01*
X309087Y715610D01*
X308970Y715588D01*
X308851Y715571D01*
X308733Y715557D01*
X308614Y715547D01*
X308494Y715541D01*
X308375Y715539D01*
X308375Y715538D02*
X304762Y715538D01*
X318588Y714635D02*
X318592Y714955D01*
X318603Y715274D01*
X318622Y715594D01*
X318649Y715912D01*
X318683Y716230D01*
X318725Y716547D01*
X318775Y716863D01*
X318832Y717178D01*
X318896Y717491D01*
X318968Y717803D01*
X319047Y718113D01*
X319134Y718420D01*
X319228Y718726D01*
X319329Y719029D01*
X319438Y719330D01*
X319553Y719628D01*
X319676Y719924D01*
X319806Y720216D01*
X319943Y720505D01*
X319942Y720506D02*
X319981Y720614D01*
X320024Y720721D01*
X320070Y720826D01*
X320121Y720930D01*
X320174Y721032D01*
X320231Y721132D01*
X320292Y721230D01*
X320356Y721325D01*
X320423Y721419D01*
X320494Y721510D01*
X320567Y721599D01*
X320644Y721685D01*
X320723Y721768D01*
X320805Y721849D01*
X320890Y721927D01*
X320978Y722001D01*
X321068Y722073D01*
X321160Y722141D01*
X321255Y722207D01*
X321352Y722269D01*
X321451Y722327D01*
X321553Y722383D01*
X321655Y722434D01*
X321760Y722482D01*
X321866Y722527D01*
X321974Y722568D01*
X322083Y722605D01*
X322193Y722638D01*
X322305Y722667D01*
X322417Y722693D01*
X322530Y722715D01*
X322644Y722732D01*
X322758Y722746D01*
X322873Y722756D01*
X322988Y722762D01*
X323103Y722764D01*
X323103Y722763D02*
X323218Y722761D01*
X323333Y722755D01*
X323448Y722745D01*
X323562Y722731D01*
X323676Y722714D01*
X323789Y722692D01*
X323901Y722666D01*
X324013Y722637D01*
X324123Y722604D01*
X324232Y722567D01*
X324340Y722526D01*
X324446Y722481D01*
X324551Y722433D01*
X324653Y722382D01*
X324754Y722326D01*
X324854Y722268D01*
X324951Y722206D01*
X325045Y722141D01*
X325138Y722072D01*
X325228Y722000D01*
X325316Y721926D01*
X325401Y721848D01*
X325483Y721767D01*
X325562Y721684D01*
X325639Y721598D01*
X325712Y721509D01*
X325783Y721418D01*
X325850Y721324D01*
X325914Y721229D01*
X325975Y721131D01*
X326032Y721031D01*
X326085Y720929D01*
X326136Y720825D01*
X326182Y720720D01*
X326225Y720613D01*
X326264Y720505D01*
X326263Y720505D02*
X326400Y720216D01*
X326530Y719924D01*
X326653Y719628D01*
X326768Y719330D01*
X326877Y719029D01*
X326978Y718726D01*
X327072Y718420D01*
X327159Y718113D01*
X327238Y717803D01*
X327310Y717491D01*
X327374Y717178D01*
X327431Y716863D01*
X327481Y716547D01*
X327523Y716230D01*
X327557Y715912D01*
X327584Y715594D01*
X327603Y715274D01*
X327614Y714955D01*
X327618Y714635D01*
X318588Y714635D02*
X318592Y714315D01*
X318603Y713996D01*
X318622Y713676D01*
X318649Y713358D01*
X318683Y713040D01*
X318725Y712723D01*
X318775Y712407D01*
X318832Y712092D01*
X318896Y711779D01*
X318968Y711467D01*
X319047Y711157D01*
X319134Y710850D01*
X319228Y710544D01*
X319329Y710241D01*
X319438Y709940D01*
X319553Y709642D01*
X319676Y709346D01*
X319806Y709054D01*
X319943Y708765D01*
X319942Y708765D02*
X319981Y708657D01*
X320024Y708550D01*
X320070Y708445D01*
X320121Y708341D01*
X320174Y708239D01*
X320231Y708139D01*
X320292Y708041D01*
X320356Y707946D01*
X320423Y707852D01*
X320494Y707761D01*
X320567Y707672D01*
X320644Y707586D01*
X320723Y707503D01*
X320805Y707422D01*
X320890Y707344D01*
X320978Y707270D01*
X321068Y707198D01*
X321161Y707129D01*
X321255Y707064D01*
X321352Y707002D01*
X321452Y706944D01*
X321553Y706888D01*
X321655Y706837D01*
X321760Y706789D01*
X321866Y706744D01*
X321974Y706703D01*
X322083Y706666D01*
X322193Y706633D01*
X322305Y706604D01*
X322417Y706578D01*
X322530Y706556D01*
X322644Y706539D01*
X322758Y706525D01*
X322873Y706515D01*
X322988Y706509D01*
X323103Y706507D01*
X326263Y708765D02*
X326400Y709054D01*
X326530Y709346D01*
X326653Y709642D01*
X326768Y709940D01*
X326877Y710241D01*
X326978Y710544D01*
X327072Y710850D01*
X327159Y711157D01*
X327238Y711467D01*
X327310Y711779D01*
X327374Y712092D01*
X327431Y712407D01*
X327481Y712723D01*
X327523Y713040D01*
X327557Y713358D01*
X327584Y713676D01*
X327603Y713996D01*
X327614Y714315D01*
X327618Y714635D01*
X326264Y708765D02*
X326225Y708657D01*
X326182Y708550D01*
X326136Y708445D01*
X326085Y708341D01*
X326032Y708239D01*
X325975Y708139D01*
X325914Y708041D01*
X325850Y707946D01*
X325783Y707852D01*
X325712Y707761D01*
X325639Y707672D01*
X325562Y707586D01*
X325483Y707503D01*
X325401Y707422D01*
X325316Y707344D01*
X325228Y707270D01*
X325138Y707198D01*
X325045Y707129D01*
X324951Y707064D01*
X324854Y707002D01*
X324754Y706944D01*
X324653Y706888D01*
X324550Y706837D01*
X324446Y706789D01*
X324340Y706744D01*
X324232Y706703D01*
X324123Y706666D01*
X324013Y706633D01*
X323901Y706604D01*
X323789Y706578D01*
X323676Y706556D01*
X323562Y706539D01*
X323448Y706525D01*
X323333Y706515D01*
X323218Y706509D01*
X323103Y706507D01*
X319491Y710119D02*
X326715Y719151D01*
D12*
X37000Y691000D03*
X37000Y378000D03*
D10*
X37000Y378650D02*
X37000Y690350D01*
X33808Y665000D01*
X40192Y665000D01*
X37000Y690350D01*
X35700Y665000D01*
X38300Y665000D02*
X37000Y690350D01*
X34400Y665000D01*
X39600Y665000D02*
X37000Y690350D01*
X33808Y404000D02*
X37000Y378650D01*
X33808Y404000D02*
X40192Y404000D01*
X37000Y378650D01*
X35700Y404000D01*
X38300Y404000D02*
X37000Y378650D01*
X34400Y404000D01*
X39600Y404000D02*
X37000Y378650D01*
D11*
X30493Y503441D02*
X30493Y507957D01*
X30491Y508090D01*
X30485Y508222D01*
X30475Y508354D01*
X30462Y508486D01*
X30444Y508618D01*
X30423Y508748D01*
X30398Y508879D01*
X30369Y509008D01*
X30336Y509136D01*
X30300Y509264D01*
X30260Y509390D01*
X30216Y509515D01*
X30168Y509639D01*
X30117Y509761D01*
X30062Y509882D01*
X30004Y510001D01*
X29942Y510119D01*
X29877Y510234D01*
X29808Y510348D01*
X29737Y510459D01*
X29661Y510568D01*
X29583Y510675D01*
X29502Y510780D01*
X29417Y510882D01*
X29330Y510982D01*
X29240Y511079D01*
X29147Y511174D01*
X29051Y511265D01*
X28953Y511354D01*
X28852Y511440D01*
X28748Y511523D01*
X28642Y511603D01*
X28534Y511679D01*
X28424Y511753D01*
X28311Y511823D01*
X28197Y511890D01*
X28080Y511953D01*
X27962Y512013D01*
X27842Y512070D01*
X27720Y512123D01*
X27597Y512172D01*
X27473Y512218D01*
X27347Y512260D01*
X27220Y512298D01*
X27092Y512333D01*
X26963Y512364D01*
X26834Y512391D01*
X26703Y512414D01*
X26572Y512434D01*
X26440Y512449D01*
X26308Y512461D01*
X26176Y512469D01*
X26043Y512473D01*
X25911Y512473D01*
X25778Y512469D01*
X25646Y512461D01*
X25514Y512449D01*
X25382Y512434D01*
X25251Y512414D01*
X25120Y512391D01*
X24991Y512364D01*
X24862Y512333D01*
X24734Y512298D01*
X24607Y512260D01*
X24481Y512218D01*
X24357Y512172D01*
X24234Y512123D01*
X24112Y512070D01*
X23992Y512013D01*
X23874Y511953D01*
X23757Y511890D01*
X23643Y511823D01*
X23530Y511753D01*
X23420Y511679D01*
X23312Y511603D01*
X23206Y511523D01*
X23102Y511440D01*
X23001Y511354D01*
X22903Y511265D01*
X22807Y511174D01*
X22714Y511079D01*
X22624Y510982D01*
X22537Y510882D01*
X22452Y510780D01*
X22371Y510675D01*
X22293Y510568D01*
X22217Y510459D01*
X22146Y510348D01*
X22077Y510234D01*
X22012Y510119D01*
X21950Y510001D01*
X21892Y509882D01*
X21837Y509761D01*
X21786Y509639D01*
X21738Y509515D01*
X21694Y509390D01*
X21654Y509264D01*
X21618Y509136D01*
X21585Y509008D01*
X21556Y508879D01*
X21531Y508748D01*
X21510Y508618D01*
X21492Y508486D01*
X21479Y508354D01*
X21469Y508222D01*
X21463Y508090D01*
X21461Y507957D01*
X14237Y508860D02*
X14237Y503441D01*
X14237Y508860D02*
X14239Y508979D01*
X14245Y509099D01*
X14255Y509218D01*
X14269Y509336D01*
X14286Y509455D01*
X14308Y509572D01*
X14333Y509689D01*
X14363Y509804D01*
X14396Y509919D01*
X14433Y510033D01*
X14473Y510145D01*
X14518Y510256D01*
X14566Y510365D01*
X14617Y510473D01*
X14672Y510579D01*
X14731Y510683D01*
X14793Y510785D01*
X14858Y510885D01*
X14927Y510983D01*
X14999Y511079D01*
X15074Y511172D01*
X15151Y511262D01*
X15232Y511350D01*
X15316Y511435D01*
X15403Y511517D01*
X15492Y511597D01*
X15584Y511673D01*
X15678Y511747D01*
X15775Y511817D01*
X15873Y511884D01*
X15974Y511948D01*
X16078Y512008D01*
X16183Y512065D01*
X16290Y512118D01*
X16398Y512168D01*
X16508Y512214D01*
X16620Y512256D01*
X16733Y512295D01*
X16847Y512330D01*
X16962Y512361D01*
X17079Y512389D01*
X17196Y512412D01*
X17313Y512432D01*
X17432Y512448D01*
X17551Y512460D01*
X17670Y512468D01*
X17789Y512472D01*
X17909Y512472D01*
X18028Y512468D01*
X18147Y512460D01*
X18266Y512448D01*
X18385Y512432D01*
X18502Y512412D01*
X18619Y512389D01*
X18736Y512361D01*
X18851Y512330D01*
X18965Y512295D01*
X19078Y512256D01*
X19190Y512214D01*
X19300Y512168D01*
X19408Y512118D01*
X19515Y512065D01*
X19620Y512008D01*
X19724Y511948D01*
X19825Y511884D01*
X19923Y511817D01*
X20020Y511747D01*
X20114Y511673D01*
X20206Y511597D01*
X20295Y511517D01*
X20382Y511435D01*
X20466Y511350D01*
X20547Y511262D01*
X20624Y511172D01*
X20699Y511079D01*
X20771Y510983D01*
X20840Y510885D01*
X20905Y510785D01*
X20967Y510683D01*
X21026Y510579D01*
X21081Y510473D01*
X21132Y510365D01*
X21180Y510256D01*
X21225Y510145D01*
X21265Y510033D01*
X21302Y509919D01*
X21335Y509804D01*
X21365Y509689D01*
X21390Y509572D01*
X21412Y509455D01*
X21429Y509336D01*
X21443Y509218D01*
X21453Y509099D01*
X21459Y508979D01*
X21461Y508860D01*
X21462Y508860D02*
X21462Y505248D01*
X17849Y519073D02*
X14237Y523588D01*
X30493Y523588D01*
X30493Y519073D02*
X30493Y528104D01*
X30493Y534078D02*
X29590Y534078D01*
X29590Y534981D01*
X30493Y534981D01*
X30493Y534078D01*
X30493Y540956D02*
X30493Y545472D01*
X30491Y545605D01*
X30485Y545737D01*
X30475Y545869D01*
X30462Y546001D01*
X30444Y546133D01*
X30423Y546263D01*
X30398Y546394D01*
X30369Y546523D01*
X30336Y546651D01*
X30300Y546779D01*
X30260Y546905D01*
X30216Y547030D01*
X30168Y547154D01*
X30117Y547276D01*
X30062Y547397D01*
X30004Y547516D01*
X29942Y547634D01*
X29877Y547749D01*
X29808Y547863D01*
X29737Y547974D01*
X29661Y548083D01*
X29583Y548190D01*
X29502Y548295D01*
X29417Y548397D01*
X29330Y548497D01*
X29240Y548594D01*
X29147Y548689D01*
X29051Y548780D01*
X28953Y548869D01*
X28852Y548955D01*
X28748Y549038D01*
X28642Y549118D01*
X28534Y549194D01*
X28424Y549268D01*
X28311Y549338D01*
X28197Y549405D01*
X28080Y549468D01*
X27962Y549528D01*
X27842Y549585D01*
X27720Y549638D01*
X27597Y549687D01*
X27473Y549733D01*
X27347Y549775D01*
X27220Y549813D01*
X27092Y549848D01*
X26963Y549879D01*
X26834Y549906D01*
X26703Y549929D01*
X26572Y549949D01*
X26440Y549964D01*
X26308Y549976D01*
X26176Y549984D01*
X26043Y549988D01*
X25911Y549988D01*
X25778Y549984D01*
X25646Y549976D01*
X25514Y549964D01*
X25382Y549949D01*
X25251Y549929D01*
X25120Y549906D01*
X24991Y549879D01*
X24862Y549848D01*
X24734Y549813D01*
X24607Y549775D01*
X24481Y549733D01*
X24357Y549687D01*
X24234Y549638D01*
X24112Y549585D01*
X23992Y549528D01*
X23874Y549468D01*
X23757Y549405D01*
X23643Y549338D01*
X23530Y549268D01*
X23420Y549194D01*
X23312Y549118D01*
X23206Y549038D01*
X23102Y548955D01*
X23001Y548869D01*
X22903Y548780D01*
X22807Y548689D01*
X22714Y548594D01*
X22624Y548497D01*
X22537Y548397D01*
X22452Y548295D01*
X22371Y548190D01*
X22293Y548083D01*
X22217Y547974D01*
X22146Y547863D01*
X22077Y547749D01*
X22012Y547634D01*
X21950Y547516D01*
X21892Y547397D01*
X21837Y547276D01*
X21786Y547154D01*
X21738Y547030D01*
X21694Y546905D01*
X21654Y546779D01*
X21618Y546651D01*
X21585Y546523D01*
X21556Y546394D01*
X21531Y546263D01*
X21510Y546133D01*
X21492Y546001D01*
X21479Y545869D01*
X21469Y545737D01*
X21463Y545605D01*
X21461Y545472D01*
X14237Y546375D02*
X14237Y540956D01*
X14237Y546375D02*
X14239Y546494D01*
X14245Y546614D01*
X14255Y546733D01*
X14269Y546851D01*
X14286Y546970D01*
X14308Y547087D01*
X14333Y547204D01*
X14363Y547319D01*
X14396Y547434D01*
X14433Y547548D01*
X14473Y547660D01*
X14518Y547771D01*
X14566Y547880D01*
X14617Y547988D01*
X14672Y548094D01*
X14731Y548198D01*
X14793Y548300D01*
X14858Y548400D01*
X14927Y548498D01*
X14999Y548594D01*
X15074Y548687D01*
X15151Y548777D01*
X15232Y548865D01*
X15316Y548950D01*
X15403Y549032D01*
X15492Y549112D01*
X15584Y549188D01*
X15678Y549262D01*
X15775Y549332D01*
X15873Y549399D01*
X15974Y549463D01*
X16078Y549523D01*
X16183Y549580D01*
X16290Y549633D01*
X16398Y549683D01*
X16508Y549729D01*
X16620Y549771D01*
X16733Y549810D01*
X16847Y549845D01*
X16962Y549876D01*
X17079Y549904D01*
X17196Y549927D01*
X17313Y549947D01*
X17432Y549963D01*
X17551Y549975D01*
X17670Y549983D01*
X17789Y549987D01*
X17909Y549987D01*
X18028Y549983D01*
X18147Y549975D01*
X18266Y549963D01*
X18385Y549947D01*
X18502Y549927D01*
X18619Y549904D01*
X18736Y549876D01*
X18851Y549845D01*
X18965Y549810D01*
X19078Y549771D01*
X19190Y549729D01*
X19300Y549683D01*
X19408Y549633D01*
X19515Y549580D01*
X19620Y549523D01*
X19724Y549463D01*
X19825Y549399D01*
X19923Y549332D01*
X20020Y549262D01*
X20114Y549188D01*
X20206Y549112D01*
X20295Y549032D01*
X20382Y548950D01*
X20466Y548865D01*
X20547Y548777D01*
X20624Y548687D01*
X20699Y548594D01*
X20771Y548498D01*
X20840Y548400D01*
X20905Y548300D01*
X20967Y548198D01*
X21026Y548094D01*
X21081Y547988D01*
X21132Y547880D01*
X21180Y547771D01*
X21225Y547660D01*
X21265Y547548D01*
X21302Y547434D01*
X21335Y547319D01*
X21365Y547204D01*
X21390Y547087D01*
X21412Y546970D01*
X21429Y546851D01*
X21443Y546733D01*
X21453Y546614D01*
X21459Y546494D01*
X21461Y546375D01*
X21462Y546375D02*
X21462Y542762D01*
X22365Y556588D02*
X22045Y556592D01*
X21726Y556603D01*
X21406Y556622D01*
X21088Y556649D01*
X20770Y556683D01*
X20453Y556725D01*
X20137Y556775D01*
X19822Y556832D01*
X19509Y556896D01*
X19197Y556968D01*
X18887Y557047D01*
X18580Y557134D01*
X18274Y557228D01*
X17971Y557329D01*
X17670Y557438D01*
X17372Y557553D01*
X17076Y557676D01*
X16784Y557806D01*
X16495Y557943D01*
X16494Y557943D02*
X16386Y557982D01*
X16279Y558025D01*
X16174Y558071D01*
X16071Y558121D01*
X15969Y558175D01*
X15869Y558232D01*
X15771Y558293D01*
X15675Y558357D01*
X15582Y558424D01*
X15491Y558494D01*
X15402Y558568D01*
X15316Y558644D01*
X15233Y558724D01*
X15152Y558806D01*
X15074Y558891D01*
X15000Y558978D01*
X14928Y559069D01*
X14859Y559161D01*
X14794Y559256D01*
X14732Y559353D01*
X14673Y559452D01*
X14618Y559553D01*
X14567Y559656D01*
X14519Y559761D01*
X14474Y559867D01*
X14433Y559974D01*
X14396Y560083D01*
X14363Y560194D01*
X14334Y560305D01*
X14308Y560417D01*
X14286Y560530D01*
X14269Y560644D01*
X14255Y560758D01*
X14245Y560873D01*
X14239Y560988D01*
X14237Y561103D01*
X14239Y561218D01*
X14245Y561333D01*
X14255Y561448D01*
X14269Y561562D01*
X14286Y561676D01*
X14308Y561789D01*
X14334Y561901D01*
X14363Y562013D01*
X14396Y562123D01*
X14433Y562232D01*
X14474Y562340D01*
X14519Y562446D01*
X14567Y562551D01*
X14618Y562653D01*
X14674Y562755D01*
X14732Y562854D01*
X14794Y562951D01*
X14860Y563046D01*
X14928Y563138D01*
X15000Y563228D01*
X15074Y563316D01*
X15152Y563401D01*
X15233Y563483D01*
X15316Y563562D01*
X15402Y563639D01*
X15491Y563712D01*
X15582Y563783D01*
X15676Y563850D01*
X15771Y563914D01*
X15869Y563975D01*
X15969Y564032D01*
X16071Y564085D01*
X16175Y564136D01*
X16280Y564182D01*
X16387Y564225D01*
X16495Y564264D01*
X16495Y564263D02*
X16784Y564400D01*
X17076Y564530D01*
X17372Y564653D01*
X17670Y564768D01*
X17971Y564877D01*
X18274Y564978D01*
X18580Y565072D01*
X18887Y565159D01*
X19197Y565238D01*
X19509Y565310D01*
X19822Y565374D01*
X20137Y565431D01*
X20453Y565481D01*
X20770Y565523D01*
X21088Y565557D01*
X21406Y565584D01*
X21726Y565603D01*
X22045Y565614D01*
X22365Y565618D01*
X22365Y556588D02*
X22685Y556592D01*
X23004Y556603D01*
X23324Y556622D01*
X23642Y556649D01*
X23960Y556683D01*
X24277Y556725D01*
X24593Y556775D01*
X24908Y556832D01*
X25221Y556896D01*
X25533Y556968D01*
X25843Y557047D01*
X26150Y557134D01*
X26456Y557228D01*
X26759Y557329D01*
X27060Y557438D01*
X27358Y557553D01*
X27654Y557676D01*
X27946Y557806D01*
X28235Y557943D01*
X28236Y557942D02*
X28344Y557981D01*
X28451Y558024D01*
X28556Y558070D01*
X28660Y558121D01*
X28762Y558174D01*
X28862Y558231D01*
X28960Y558292D01*
X29055Y558356D01*
X29149Y558423D01*
X29240Y558494D01*
X29329Y558567D01*
X29415Y558644D01*
X29498Y558723D01*
X29579Y558805D01*
X29657Y558890D01*
X29731Y558978D01*
X29803Y559068D01*
X29872Y559161D01*
X29937Y559255D01*
X29999Y559352D01*
X30057Y559452D01*
X30113Y559553D01*
X30164Y559655D01*
X30212Y559760D01*
X30257Y559866D01*
X30298Y559974D01*
X30335Y560083D01*
X30368Y560193D01*
X30397Y560305D01*
X30423Y560417D01*
X30445Y560530D01*
X30462Y560644D01*
X30476Y560758D01*
X30486Y560873D01*
X30492Y560988D01*
X30494Y561103D01*
X28235Y564263D02*
X27946Y564400D01*
X27654Y564530D01*
X27358Y564653D01*
X27060Y564768D01*
X26759Y564877D01*
X26456Y564978D01*
X26150Y565072D01*
X25843Y565159D01*
X25533Y565238D01*
X25221Y565310D01*
X24908Y565374D01*
X24593Y565431D01*
X24277Y565481D01*
X23960Y565523D01*
X23642Y565557D01*
X23324Y565584D01*
X23004Y565603D01*
X22685Y565614D01*
X22365Y565618D01*
X28235Y564264D02*
X28343Y564225D01*
X28450Y564182D01*
X28555Y564136D01*
X28659Y564085D01*
X28761Y564032D01*
X28861Y563975D01*
X28959Y563914D01*
X29054Y563850D01*
X29148Y563783D01*
X29239Y563712D01*
X29328Y563639D01*
X29414Y563562D01*
X29497Y563483D01*
X29578Y563401D01*
X29656Y563316D01*
X29730Y563228D01*
X29802Y563138D01*
X29871Y563045D01*
X29936Y562951D01*
X29998Y562854D01*
X30056Y562754D01*
X30112Y562653D01*
X30163Y562550D01*
X30211Y562446D01*
X30256Y562340D01*
X30297Y562232D01*
X30334Y562123D01*
X30367Y562013D01*
X30396Y561901D01*
X30422Y561789D01*
X30444Y561676D01*
X30461Y561562D01*
X30475Y561448D01*
X30485Y561333D01*
X30491Y561218D01*
X30493Y561103D01*
X26881Y557491D02*
X17849Y564715D01*
D13*
X342900Y441800D03*
X317500Y441800D03*
D14*
X457200Y462438D03*
X457200Y446562D03*
X457200Y424338D03*
X457200Y408462D03*
D15*
X520700Y458310D03*
X520700Y416400D03*
D16*
X254000Y434180D02*
X254000Y449420D01*
X228600Y449420D02*
X228600Y434180D01*
X203200Y434180D02*
X203200Y449420D01*
D17*
X386080Y416400D03*
X401320Y416400D03*
X222980Y466900D03*
X238220Y466900D03*
X386080Y454500D03*
X401320Y454500D03*
D18*
X111100Y453800D03*
X101600Y429800D03*
X92100Y453800D03*
D19*
X293561Y645000D02*
X316040Y645000D01*
X163640Y645000D02*
X141161Y645000D01*
X496761Y645000D02*
X519240Y645000D01*
X366840Y645000D02*
X344361Y645000D01*
X316040Y581500D02*
X293561Y581500D01*
X163640Y581500D02*
X141161Y581500D01*
X496761Y581500D02*
X519240Y581500D01*
X366840Y581500D02*
X344361Y581500D01*
X316040Y518000D02*
X293561Y518000D01*
X163640Y518000D02*
X141161Y518000D01*
X496761Y518000D02*
X519240Y518000D01*
X366840Y518000D02*
X344361Y518000D01*
D15*
X83000Y613000D03*
X85000Y552000D03*
X86000Y492000D03*
D11*
X390000Y455000D02*
X390000Y430000D01*
X390000Y420000D01*
X386080Y416400D01*
X386080Y454500D02*
X390000Y455000D01*
X390000Y430000D02*
X405000Y430000D01*
D20*
X405000Y430000D03*
D11*
X240000Y455000D02*
X240000Y466947D01*
X240000Y455000D02*
X250000Y445000D01*
X240000Y466947D02*
X238220Y466900D01*
X250000Y445000D02*
X254000Y441800D01*
X195000Y425000D02*
X105000Y425000D01*
X195000Y425000D02*
X200000Y420000D01*
X230000Y420000D01*
X250000Y440000D01*
X105000Y425000D02*
X101600Y429800D01*
X250000Y440000D02*
X254000Y441800D01*
X405000Y455000D02*
X425000Y455000D01*
X455000Y425000D01*
X405000Y455000D02*
X401320Y454500D01*
X455000Y425000D02*
X457200Y424338D01*
X180000Y455000D02*
X115000Y455000D01*
X180000Y455000D02*
X199000Y474000D01*
X381000Y474000D01*
X400000Y455000D01*
X115000Y455000D02*
X111100Y453800D01*
X400000Y455000D02*
X401320Y454500D01*
X425000Y440000D02*
X405000Y420000D01*
X445000Y445000D02*
X455000Y445000D01*
X405000Y420000D02*
X401320Y416400D01*
X455000Y445000D02*
X457200Y446562D01*
D20*
X425000Y440000D03*
X445000Y445000D03*
D21*
X300000Y580000D02*
X270000Y550000D01*
D11*
X300000Y580000D02*
X304800Y581500D01*
D21*
X305000Y580000D02*
X355000Y580000D01*
D11*
X355600Y581500D01*
X305000Y580000D02*
X304800Y581500D01*
D21*
X270000Y550000D02*
X87000Y550000D01*
D22*
X85000Y552000D01*
D21*
X278800Y492000D02*
X304800Y518000D01*
X278800Y492000D02*
X123493Y492000D01*
X305000Y520000D02*
X355000Y520000D01*
D11*
X355600Y518000D01*
X305000Y520000D02*
X304800Y518000D01*
D21*
X123493Y492000D02*
X86000Y492000D01*
D11*
X90000Y450000D02*
X90000Y425000D01*
X100000Y415000D01*
X315000Y415000D01*
X340000Y440000D01*
X92100Y453800D02*
X90000Y450000D01*
X340000Y440000D02*
X342900Y441800D01*
X460000Y410000D02*
X475000Y410000D01*
X520000Y455000D01*
X460000Y410000D02*
X457200Y408462D01*
X520000Y455000D02*
X520700Y458310D01*
X520000Y460000D02*
X510000Y460000D01*
X460000Y460000D01*
X457200Y462438D01*
X520000Y460000D02*
X520700Y458310D01*
D21*
X510000Y460000D02*
X510000Y515000D01*
D11*
X508000Y518000D01*
D23*
X510000Y520000D02*
X510000Y580000D01*
D11*
X508000Y581500D01*
X510000Y520000D02*
X508000Y518000D01*
D21*
X510000Y585000D02*
X510000Y645000D01*
D11*
X508000Y645000D01*
X510000Y585000D02*
X508000Y581500D01*
X220000Y467204D02*
X220000Y460000D01*
X205000Y445000D01*
X220000Y467204D02*
X222980Y466900D01*
X205000Y445000D02*
X203200Y441800D01*
D21*
X150000Y585000D02*
X150000Y645000D01*
D11*
X152400Y645000D01*
X150000Y585000D02*
X152400Y581500D01*
D21*
X304800Y645000D02*
X355600Y645000D01*
M02*
