G04 EAGLE Gerber RS-274X export*
G75*
%MOMM*%
%FSLAX34Y34*%
%LPD*%
%INBottom Copper*%
%IPPOS*%
%AMOC8*
5,1,8,0,0,1.08239X$1,22.5*%
G01*
%ADD10P,1.429621X8X202.500000*%
%ADD11P,1.649562X8X22.500000*%
%ADD12C,1.524000*%
%ADD13C,2.247900*%
%ADD14C,0.152400*%
%ADD15C,2.500000*%
%ADD16C,0.756400*%
%ADD17C,0.508000*%


D10*
X342900Y441800D03*
X317500Y441800D03*
D11*
X520700Y458310D03*
X520700Y416400D03*
D12*
X254000Y434180D02*
X254000Y449420D01*
X228600Y449420D02*
X228600Y434180D01*
X203200Y434180D02*
X203200Y449420D01*
D13*
X293561Y645000D02*
X316040Y645000D01*
X163640Y645000D02*
X141161Y645000D01*
X496761Y645000D02*
X519240Y645000D01*
X366840Y645000D02*
X344361Y645000D01*
X316040Y581500D02*
X293561Y581500D01*
X163640Y581500D02*
X141161Y581500D01*
X496761Y581500D02*
X519240Y581500D01*
X366840Y581500D02*
X344361Y581500D01*
X316040Y518000D02*
X293561Y518000D01*
X163640Y518000D02*
X141161Y518000D01*
X496761Y518000D02*
X519240Y518000D01*
X366840Y518000D02*
X344361Y518000D01*
D11*
X83000Y613000D03*
X85000Y552000D03*
X86000Y492000D03*
D14*
X405000Y430000D02*
X425000Y410000D01*
X514300Y410000D02*
X520700Y416400D01*
D15*
X514300Y410000D02*
X425000Y410000D01*
X228600Y410000D01*
X228600Y441800D01*
D16*
X405000Y430000D03*
D14*
X425000Y440000D02*
X430000Y445000D01*
X445000Y445000D01*
D16*
X425000Y440000D03*
X445000Y445000D03*
D14*
X355000Y455000D02*
X345000Y445000D01*
X355000Y455000D02*
X520000Y455000D01*
X345000Y445000D02*
X342900Y441800D01*
X520000Y455000D02*
X520700Y458310D01*
X315000Y445000D02*
X300000Y460000D01*
X220000Y460000D01*
X205000Y445000D02*
X200714Y440714D01*
X205000Y445000D02*
X220000Y460000D01*
X315000Y445000D02*
X317500Y441800D01*
X205000Y445000D02*
X203200Y441800D01*
D15*
X150000Y520000D02*
X150000Y580000D01*
D14*
X150000Y520000D02*
X152400Y518000D01*
X150000Y580000D02*
X152400Y581500D01*
D15*
X152400Y496462D02*
X200714Y440714D01*
X152400Y496462D02*
X152400Y518000D01*
X119881Y614000D02*
X269000Y614000D01*
X300000Y645000D01*
D14*
X304800Y645000D01*
D15*
X119881Y614000D02*
X84000Y614000D01*
D17*
X83000Y613000D01*
M02*
