G04 EAGLE Gerber RS-274X export*
G75*
%MOMM*%
%FSLAX34Y34*%
%LPD*%
%INSilkscreen Top*%
%IPPOS*%
%AMOC8*
5,1,8,0,0,1.08239X$1,22.5*%
G01*
%ADD10C,0.152400*%
%ADD11C,0.304800*%
%ADD12C,0.127000*%
%ADD13R,0.300000X0.250000*%
%ADD14R,0.200000X0.250000*%
%ADD15C,0.203200*%
%ADD16R,10.160000X1.016000*%
%ADD17C,0.101600*%


D10*
X351790Y448150D02*
X351790Y435450D01*
X351788Y435310D01*
X351782Y435170D01*
X351773Y435030D01*
X351759Y434891D01*
X351742Y434752D01*
X351721Y434614D01*
X351696Y434476D01*
X351667Y434339D01*
X351635Y434203D01*
X351598Y434068D01*
X351558Y433934D01*
X351515Y433801D01*
X351467Y433669D01*
X351417Y433538D01*
X351362Y433409D01*
X351304Y433282D01*
X351243Y433156D01*
X351178Y433032D01*
X351109Y432910D01*
X351038Y432790D01*
X350963Y432672D01*
X350885Y432555D01*
X350803Y432441D01*
X350719Y432330D01*
X350631Y432221D01*
X350541Y432114D01*
X350447Y432009D01*
X350351Y431908D01*
X350252Y431809D01*
X350151Y431713D01*
X350046Y431619D01*
X349939Y431529D01*
X349830Y431441D01*
X349719Y431357D01*
X349605Y431275D01*
X349488Y431197D01*
X349370Y431122D01*
X349250Y431051D01*
X349128Y430982D01*
X349004Y430917D01*
X348878Y430856D01*
X348751Y430798D01*
X348622Y430743D01*
X348491Y430693D01*
X348359Y430645D01*
X348226Y430602D01*
X348092Y430562D01*
X347957Y430525D01*
X347821Y430493D01*
X347684Y430464D01*
X347546Y430439D01*
X347408Y430418D01*
X347269Y430401D01*
X347130Y430387D01*
X346990Y430378D01*
X346850Y430372D01*
X346710Y430370D01*
X351790Y448150D02*
X351788Y448290D01*
X351782Y448430D01*
X351773Y448570D01*
X351759Y448709D01*
X351742Y448848D01*
X351721Y448986D01*
X351696Y449124D01*
X351667Y449261D01*
X351635Y449397D01*
X351598Y449532D01*
X351558Y449666D01*
X351515Y449799D01*
X351467Y449931D01*
X351417Y450062D01*
X351362Y450191D01*
X351304Y450318D01*
X351243Y450444D01*
X351178Y450568D01*
X351109Y450690D01*
X351038Y450810D01*
X350963Y450928D01*
X350885Y451045D01*
X350803Y451159D01*
X350719Y451270D01*
X350631Y451379D01*
X350541Y451486D01*
X350447Y451591D01*
X350351Y451692D01*
X350252Y451791D01*
X350151Y451887D01*
X350046Y451981D01*
X349939Y452071D01*
X349830Y452159D01*
X349719Y452243D01*
X349605Y452325D01*
X349488Y452403D01*
X349370Y452478D01*
X349250Y452549D01*
X349128Y452618D01*
X349004Y452683D01*
X348878Y452744D01*
X348751Y452802D01*
X348622Y452857D01*
X348491Y452907D01*
X348359Y452955D01*
X348226Y452998D01*
X348092Y453038D01*
X347957Y453075D01*
X347821Y453107D01*
X347684Y453136D01*
X347546Y453161D01*
X347408Y453182D01*
X347269Y453199D01*
X347130Y453213D01*
X346990Y453222D01*
X346850Y453228D01*
X346710Y453230D01*
X346710Y430370D02*
X313690Y430370D01*
X308610Y435450D02*
X308610Y448150D01*
X313690Y453230D02*
X346710Y453230D01*
X313690Y430370D02*
X313550Y430372D01*
X313410Y430378D01*
X313270Y430387D01*
X313131Y430401D01*
X312992Y430418D01*
X312854Y430439D01*
X312716Y430464D01*
X312579Y430493D01*
X312443Y430525D01*
X312308Y430562D01*
X312174Y430602D01*
X312041Y430645D01*
X311909Y430693D01*
X311778Y430743D01*
X311649Y430798D01*
X311522Y430856D01*
X311396Y430917D01*
X311272Y430982D01*
X311150Y431051D01*
X311030Y431122D01*
X310912Y431197D01*
X310795Y431275D01*
X310681Y431357D01*
X310570Y431441D01*
X310461Y431529D01*
X310354Y431619D01*
X310249Y431713D01*
X310148Y431809D01*
X310049Y431908D01*
X309953Y432009D01*
X309859Y432114D01*
X309769Y432221D01*
X309681Y432330D01*
X309597Y432441D01*
X309515Y432555D01*
X309437Y432672D01*
X309362Y432790D01*
X309291Y432910D01*
X309222Y433032D01*
X309157Y433156D01*
X309096Y433282D01*
X309038Y433409D01*
X308983Y433538D01*
X308933Y433669D01*
X308885Y433801D01*
X308842Y433934D01*
X308802Y434068D01*
X308765Y434203D01*
X308733Y434339D01*
X308704Y434476D01*
X308679Y434614D01*
X308658Y434752D01*
X308641Y434891D01*
X308627Y435030D01*
X308618Y435170D01*
X308612Y435310D01*
X308610Y435450D01*
X308610Y448150D02*
X308612Y448290D01*
X308618Y448430D01*
X308627Y448570D01*
X308641Y448709D01*
X308658Y448848D01*
X308679Y448986D01*
X308704Y449124D01*
X308733Y449261D01*
X308765Y449397D01*
X308802Y449532D01*
X308842Y449666D01*
X308885Y449799D01*
X308933Y449931D01*
X308983Y450062D01*
X309038Y450191D01*
X309096Y450318D01*
X309157Y450444D01*
X309222Y450568D01*
X309291Y450690D01*
X309362Y450810D01*
X309437Y450928D01*
X309515Y451045D01*
X309597Y451159D01*
X309681Y451270D01*
X309769Y451379D01*
X309859Y451486D01*
X309953Y451591D01*
X310049Y451692D01*
X310148Y451791D01*
X310249Y451887D01*
X310354Y451981D01*
X310461Y452071D01*
X310570Y452159D01*
X310681Y452243D01*
X310795Y452325D01*
X310912Y452403D01*
X311030Y452478D01*
X311150Y452549D01*
X311272Y452618D01*
X311396Y452683D01*
X311522Y452744D01*
X311649Y452802D01*
X311778Y452857D01*
X311909Y452907D01*
X312041Y452955D01*
X312174Y452998D01*
X312308Y453038D01*
X312443Y453075D01*
X312579Y453107D01*
X312716Y453136D01*
X312854Y453161D01*
X312992Y453182D01*
X313131Y453199D01*
X313270Y453213D01*
X313410Y453222D01*
X313550Y453228D01*
X313690Y453230D01*
D11*
X333248Y449420D02*
X333248Y434180D01*
X326898Y434180D02*
X326898Y449420D01*
D12*
X333973Y415765D02*
X336513Y415765D01*
X333973Y415765D02*
X333873Y415767D01*
X333774Y415773D01*
X333674Y415783D01*
X333576Y415796D01*
X333477Y415814D01*
X333380Y415835D01*
X333284Y415860D01*
X333188Y415889D01*
X333094Y415922D01*
X333001Y415958D01*
X332910Y415998D01*
X332820Y416042D01*
X332732Y416089D01*
X332646Y416139D01*
X332562Y416193D01*
X332480Y416250D01*
X332401Y416310D01*
X332323Y416374D01*
X332249Y416440D01*
X332177Y416509D01*
X332108Y416581D01*
X332042Y416655D01*
X331978Y416733D01*
X331918Y416812D01*
X331861Y416894D01*
X331807Y416978D01*
X331757Y417064D01*
X331710Y417152D01*
X331666Y417242D01*
X331626Y417333D01*
X331590Y417426D01*
X331557Y417520D01*
X331528Y417616D01*
X331503Y417712D01*
X331482Y417809D01*
X331464Y417908D01*
X331451Y418006D01*
X331441Y418106D01*
X331435Y418205D01*
X331433Y418305D01*
X331433Y424655D01*
X331435Y424755D01*
X331441Y424854D01*
X331451Y424954D01*
X331464Y425052D01*
X331482Y425151D01*
X331503Y425248D01*
X331528Y425344D01*
X331557Y425440D01*
X331590Y425534D01*
X331626Y425627D01*
X331666Y425718D01*
X331710Y425808D01*
X331757Y425896D01*
X331807Y425982D01*
X331861Y426066D01*
X331918Y426148D01*
X331978Y426227D01*
X332042Y426305D01*
X332108Y426379D01*
X332177Y426451D01*
X332249Y426520D01*
X332323Y426586D01*
X332401Y426650D01*
X332480Y426710D01*
X332562Y426767D01*
X332646Y426821D01*
X332732Y426871D01*
X332820Y426918D01*
X332910Y426962D01*
X333001Y427002D01*
X333094Y427038D01*
X333188Y427071D01*
X333284Y427100D01*
X333380Y427125D01*
X333477Y427146D01*
X333576Y427164D01*
X333674Y427177D01*
X333774Y427187D01*
X333873Y427193D01*
X333973Y427195D01*
X336513Y427195D01*
X340995Y424655D02*
X344170Y427195D01*
X344170Y415765D01*
X340995Y415765D02*
X347345Y415765D01*
D13*
X457200Y453758D03*
D14*
X461200Y453758D03*
X453200Y453758D03*
D10*
X465900Y455210D02*
X472504Y455210D01*
X465900Y455210D02*
X465900Y457045D01*
X465902Y457130D01*
X465908Y457214D01*
X465918Y457298D01*
X465931Y457382D01*
X465949Y457465D01*
X465970Y457547D01*
X465995Y457628D01*
X466024Y457708D01*
X466056Y457786D01*
X466092Y457862D01*
X466132Y457937D01*
X466175Y458010D01*
X466221Y458081D01*
X466270Y458150D01*
X466323Y458217D01*
X466379Y458281D01*
X466437Y458342D01*
X466498Y458400D01*
X466562Y458456D01*
X466629Y458509D01*
X466698Y458558D01*
X466769Y458604D01*
X466842Y458647D01*
X466917Y458687D01*
X466993Y458723D01*
X467072Y458755D01*
X467151Y458784D01*
X467232Y458809D01*
X467314Y458830D01*
X467397Y458848D01*
X467481Y458861D01*
X467565Y458871D01*
X467649Y458877D01*
X467734Y458879D01*
X470670Y458879D01*
X470755Y458877D01*
X470839Y458871D01*
X470923Y458861D01*
X471007Y458848D01*
X471090Y458830D01*
X471172Y458809D01*
X471253Y458784D01*
X471333Y458755D01*
X471411Y458723D01*
X471487Y458687D01*
X471562Y458647D01*
X471635Y458604D01*
X471706Y458558D01*
X471775Y458509D01*
X471842Y458456D01*
X471906Y458400D01*
X471967Y458342D01*
X472025Y458281D01*
X472081Y458217D01*
X472134Y458150D01*
X472183Y458081D01*
X472229Y458010D01*
X472272Y457937D01*
X472312Y457862D01*
X472348Y457786D01*
X472380Y457708D01*
X472409Y457628D01*
X472434Y457547D01*
X472455Y457465D01*
X472473Y457382D01*
X472486Y457298D01*
X472496Y457214D01*
X472502Y457130D01*
X472504Y457045D01*
X472504Y455210D01*
X467368Y462769D02*
X465900Y464604D01*
X472504Y464604D01*
X472504Y466438D02*
X472504Y462769D01*
D13*
X457200Y415658D03*
D14*
X461200Y415658D03*
X453200Y415658D03*
D10*
X465900Y417110D02*
X472504Y417110D01*
X465900Y417110D02*
X465900Y418945D01*
X465902Y419030D01*
X465908Y419114D01*
X465918Y419198D01*
X465931Y419282D01*
X465949Y419365D01*
X465970Y419447D01*
X465995Y419528D01*
X466024Y419608D01*
X466056Y419686D01*
X466092Y419762D01*
X466132Y419837D01*
X466175Y419910D01*
X466221Y419981D01*
X466270Y420050D01*
X466323Y420117D01*
X466379Y420181D01*
X466437Y420242D01*
X466498Y420300D01*
X466562Y420356D01*
X466629Y420409D01*
X466698Y420458D01*
X466769Y420504D01*
X466842Y420547D01*
X466917Y420587D01*
X466993Y420623D01*
X467072Y420655D01*
X467151Y420684D01*
X467232Y420709D01*
X467314Y420730D01*
X467397Y420748D01*
X467481Y420761D01*
X467565Y420771D01*
X467649Y420777D01*
X467734Y420779D01*
X470670Y420779D01*
X470755Y420777D01*
X470839Y420771D01*
X470923Y420761D01*
X471007Y420748D01*
X471090Y420730D01*
X471172Y420709D01*
X471253Y420684D01*
X471333Y420655D01*
X471411Y420623D01*
X471487Y420587D01*
X471562Y420547D01*
X471635Y420504D01*
X471706Y420458D01*
X471775Y420409D01*
X471842Y420356D01*
X471906Y420300D01*
X471967Y420242D01*
X472025Y420181D01*
X472081Y420117D01*
X472134Y420050D01*
X472183Y419981D01*
X472229Y419910D01*
X472272Y419837D01*
X472312Y419762D01*
X472348Y419686D01*
X472380Y419608D01*
X472409Y419528D01*
X472434Y419447D01*
X472455Y419365D01*
X472473Y419282D01*
X472486Y419198D01*
X472496Y419114D01*
X472502Y419030D01*
X472504Y418945D01*
X472504Y417110D01*
X465900Y426687D02*
X465902Y426766D01*
X465907Y426844D01*
X465917Y426922D01*
X465930Y426999D01*
X465947Y427076D01*
X465967Y427152D01*
X465991Y427227D01*
X466018Y427301D01*
X466049Y427373D01*
X466084Y427444D01*
X466121Y427513D01*
X466162Y427580D01*
X466206Y427645D01*
X466253Y427708D01*
X466303Y427768D01*
X466356Y427826D01*
X466412Y427882D01*
X466470Y427935D01*
X466530Y427985D01*
X466593Y428032D01*
X466658Y428076D01*
X466726Y428117D01*
X466794Y428154D01*
X466865Y428189D01*
X466937Y428220D01*
X467011Y428247D01*
X467086Y428271D01*
X467162Y428291D01*
X467239Y428308D01*
X467316Y428321D01*
X467394Y428331D01*
X467472Y428336D01*
X467551Y428338D01*
X465900Y426687D02*
X465902Y426598D01*
X465907Y426509D01*
X465917Y426421D01*
X465930Y426333D01*
X465946Y426246D01*
X465967Y426159D01*
X465991Y426074D01*
X466018Y425989D01*
X466049Y425906D01*
X466084Y425824D01*
X466122Y425743D01*
X466163Y425664D01*
X466207Y425588D01*
X466255Y425512D01*
X466306Y425439D01*
X466359Y425369D01*
X466416Y425300D01*
X466476Y425234D01*
X466538Y425171D01*
X466603Y425110D01*
X466670Y425052D01*
X466740Y424997D01*
X466812Y424944D01*
X466886Y424895D01*
X466962Y424849D01*
X467040Y424807D01*
X467120Y424767D01*
X467201Y424731D01*
X467284Y424698D01*
X467368Y424669D01*
X468835Y427788D02*
X468779Y427844D01*
X468720Y427898D01*
X468659Y427949D01*
X468595Y427998D01*
X468530Y428043D01*
X468462Y428086D01*
X468393Y428125D01*
X468322Y428162D01*
X468249Y428195D01*
X468175Y428224D01*
X468100Y428251D01*
X468024Y428274D01*
X467946Y428293D01*
X467868Y428309D01*
X467790Y428322D01*
X467710Y428331D01*
X467631Y428336D01*
X467551Y428338D01*
X468835Y427788D02*
X472504Y424669D01*
X472504Y428338D01*
X514350Y471010D02*
X527050Y471010D01*
X533400Y464660D01*
X533400Y451960D01*
X527050Y445610D01*
X508000Y451960D02*
X508000Y464660D01*
X514350Y471010D01*
X508000Y451960D02*
X514350Y445610D01*
X527050Y445610D01*
D12*
X511683Y479773D02*
X511683Y488663D01*
X511683Y479773D02*
X511681Y479673D01*
X511675Y479574D01*
X511665Y479474D01*
X511652Y479376D01*
X511634Y479277D01*
X511613Y479180D01*
X511588Y479084D01*
X511559Y478988D01*
X511526Y478894D01*
X511490Y478801D01*
X511450Y478710D01*
X511406Y478620D01*
X511359Y478532D01*
X511309Y478446D01*
X511255Y478362D01*
X511198Y478280D01*
X511138Y478201D01*
X511074Y478123D01*
X511008Y478049D01*
X510939Y477977D01*
X510867Y477908D01*
X510793Y477842D01*
X510715Y477778D01*
X510636Y477718D01*
X510554Y477661D01*
X510470Y477607D01*
X510384Y477557D01*
X510296Y477510D01*
X510206Y477466D01*
X510115Y477426D01*
X510022Y477390D01*
X509928Y477357D01*
X509832Y477328D01*
X509736Y477303D01*
X509639Y477282D01*
X509540Y477264D01*
X509442Y477251D01*
X509342Y477241D01*
X509243Y477235D01*
X509143Y477233D01*
X507873Y477233D01*
X517663Y477233D02*
X517663Y488663D01*
X520838Y488663D01*
X520949Y488661D01*
X521059Y488655D01*
X521170Y488646D01*
X521280Y488632D01*
X521389Y488615D01*
X521498Y488594D01*
X521606Y488569D01*
X521713Y488540D01*
X521819Y488508D01*
X521924Y488472D01*
X522027Y488432D01*
X522129Y488389D01*
X522230Y488342D01*
X522329Y488291D01*
X522426Y488238D01*
X522520Y488181D01*
X522613Y488120D01*
X522704Y488057D01*
X522793Y487990D01*
X522879Y487920D01*
X522962Y487847D01*
X523044Y487772D01*
X523122Y487694D01*
X523197Y487612D01*
X523270Y487529D01*
X523340Y487443D01*
X523407Y487354D01*
X523470Y487263D01*
X523531Y487170D01*
X523588Y487075D01*
X523641Y486979D01*
X523692Y486880D01*
X523739Y486779D01*
X523782Y486677D01*
X523822Y486574D01*
X523858Y486469D01*
X523890Y486363D01*
X523919Y486256D01*
X523944Y486148D01*
X523965Y486039D01*
X523982Y485930D01*
X523996Y485820D01*
X524005Y485709D01*
X524011Y485599D01*
X524013Y485488D01*
X524011Y485377D01*
X524005Y485267D01*
X523996Y485156D01*
X523982Y485046D01*
X523965Y484937D01*
X523944Y484828D01*
X523919Y484720D01*
X523890Y484613D01*
X523858Y484507D01*
X523822Y484402D01*
X523782Y484299D01*
X523739Y484197D01*
X523692Y484096D01*
X523641Y483997D01*
X523588Y483900D01*
X523531Y483806D01*
X523470Y483713D01*
X523407Y483622D01*
X523340Y483533D01*
X523270Y483447D01*
X523197Y483364D01*
X523122Y483282D01*
X523044Y483204D01*
X522962Y483129D01*
X522879Y483056D01*
X522793Y482986D01*
X522704Y482919D01*
X522613Y482856D01*
X522520Y482795D01*
X522426Y482738D01*
X522329Y482685D01*
X522230Y482634D01*
X522129Y482587D01*
X522027Y482544D01*
X521924Y482504D01*
X521819Y482468D01*
X521713Y482436D01*
X521606Y482407D01*
X521498Y482382D01*
X521389Y482361D01*
X521280Y482344D01*
X521170Y482330D01*
X521059Y482321D01*
X520949Y482315D01*
X520838Y482313D01*
X517663Y482313D01*
X532014Y488664D02*
X532118Y488662D01*
X532223Y488656D01*
X532327Y488647D01*
X532430Y488634D01*
X532533Y488616D01*
X532635Y488596D01*
X532737Y488571D01*
X532837Y488543D01*
X532937Y488511D01*
X533035Y488475D01*
X533132Y488436D01*
X533227Y488394D01*
X533321Y488348D01*
X533413Y488298D01*
X533503Y488246D01*
X533591Y488190D01*
X533677Y488130D01*
X533761Y488068D01*
X533842Y488003D01*
X533921Y487935D01*
X533998Y487863D01*
X534071Y487790D01*
X534143Y487713D01*
X534211Y487634D01*
X534276Y487553D01*
X534338Y487469D01*
X534398Y487383D01*
X534454Y487295D01*
X534506Y487205D01*
X534556Y487113D01*
X534602Y487019D01*
X534644Y486924D01*
X534683Y486827D01*
X534719Y486729D01*
X534751Y486629D01*
X534779Y486529D01*
X534804Y486427D01*
X534824Y486325D01*
X534842Y486222D01*
X534855Y486119D01*
X534864Y486015D01*
X534870Y485910D01*
X534872Y485806D01*
X532014Y488663D02*
X531896Y488661D01*
X531777Y488655D01*
X531659Y488646D01*
X531542Y488633D01*
X531425Y488615D01*
X531308Y488595D01*
X531192Y488570D01*
X531077Y488542D01*
X530964Y488509D01*
X530851Y488474D01*
X530739Y488434D01*
X530629Y488392D01*
X530520Y488345D01*
X530412Y488295D01*
X530307Y488242D01*
X530203Y488185D01*
X530101Y488125D01*
X530001Y488062D01*
X529903Y487995D01*
X529807Y487926D01*
X529714Y487853D01*
X529623Y487777D01*
X529534Y487699D01*
X529448Y487617D01*
X529365Y487533D01*
X529284Y487447D01*
X529207Y487357D01*
X529132Y487266D01*
X529060Y487172D01*
X528991Y487075D01*
X528926Y486977D01*
X528863Y486876D01*
X528804Y486773D01*
X528748Y486669D01*
X528696Y486563D01*
X528647Y486455D01*
X528602Y486346D01*
X528560Y486235D01*
X528522Y486123D01*
X533920Y483584D02*
X533996Y483659D01*
X534071Y483738D01*
X534142Y483819D01*
X534211Y483903D01*
X534276Y483989D01*
X534338Y484077D01*
X534398Y484167D01*
X534454Y484259D01*
X534507Y484354D01*
X534556Y484450D01*
X534602Y484548D01*
X534645Y484647D01*
X534684Y484748D01*
X534719Y484850D01*
X534751Y484953D01*
X534779Y485057D01*
X534804Y485162D01*
X534825Y485269D01*
X534842Y485375D01*
X534855Y485482D01*
X534864Y485590D01*
X534870Y485698D01*
X534872Y485806D01*
X533919Y483583D02*
X528522Y477233D01*
X534872Y477233D01*
D10*
X527050Y429100D02*
X514350Y429100D01*
X527050Y429100D02*
X533400Y422750D01*
X533400Y410050D01*
X527050Y403700D01*
X508000Y410050D02*
X508000Y422750D01*
X514350Y429100D01*
X508000Y410050D02*
X514350Y403700D01*
X527050Y403700D01*
D12*
X511683Y437863D02*
X511683Y446753D01*
X511683Y437863D02*
X511681Y437763D01*
X511675Y437664D01*
X511665Y437564D01*
X511652Y437466D01*
X511634Y437367D01*
X511613Y437270D01*
X511588Y437174D01*
X511559Y437078D01*
X511526Y436984D01*
X511490Y436891D01*
X511450Y436800D01*
X511406Y436710D01*
X511359Y436622D01*
X511309Y436536D01*
X511255Y436452D01*
X511198Y436370D01*
X511138Y436291D01*
X511074Y436213D01*
X511008Y436139D01*
X510939Y436067D01*
X510867Y435998D01*
X510793Y435932D01*
X510715Y435868D01*
X510636Y435808D01*
X510554Y435751D01*
X510470Y435697D01*
X510384Y435647D01*
X510296Y435600D01*
X510206Y435556D01*
X510115Y435516D01*
X510022Y435480D01*
X509928Y435447D01*
X509832Y435418D01*
X509736Y435393D01*
X509639Y435372D01*
X509540Y435354D01*
X509442Y435341D01*
X509342Y435331D01*
X509243Y435325D01*
X509143Y435323D01*
X507873Y435323D01*
X517663Y435323D02*
X517663Y446753D01*
X520838Y446753D01*
X520949Y446751D01*
X521059Y446745D01*
X521170Y446736D01*
X521280Y446722D01*
X521389Y446705D01*
X521498Y446684D01*
X521606Y446659D01*
X521713Y446630D01*
X521819Y446598D01*
X521924Y446562D01*
X522027Y446522D01*
X522129Y446479D01*
X522230Y446432D01*
X522329Y446381D01*
X522426Y446328D01*
X522520Y446271D01*
X522613Y446210D01*
X522704Y446147D01*
X522793Y446080D01*
X522879Y446010D01*
X522962Y445937D01*
X523044Y445862D01*
X523122Y445784D01*
X523197Y445702D01*
X523270Y445619D01*
X523340Y445533D01*
X523407Y445444D01*
X523470Y445353D01*
X523531Y445260D01*
X523588Y445165D01*
X523641Y445069D01*
X523692Y444970D01*
X523739Y444869D01*
X523782Y444767D01*
X523822Y444664D01*
X523858Y444559D01*
X523890Y444453D01*
X523919Y444346D01*
X523944Y444238D01*
X523965Y444129D01*
X523982Y444020D01*
X523996Y443910D01*
X524005Y443799D01*
X524011Y443689D01*
X524013Y443578D01*
X524011Y443467D01*
X524005Y443357D01*
X523996Y443246D01*
X523982Y443136D01*
X523965Y443027D01*
X523944Y442918D01*
X523919Y442810D01*
X523890Y442703D01*
X523858Y442597D01*
X523822Y442492D01*
X523782Y442389D01*
X523739Y442287D01*
X523692Y442186D01*
X523641Y442087D01*
X523588Y441990D01*
X523531Y441896D01*
X523470Y441803D01*
X523407Y441712D01*
X523340Y441623D01*
X523270Y441537D01*
X523197Y441454D01*
X523122Y441372D01*
X523044Y441294D01*
X522962Y441219D01*
X522879Y441146D01*
X522793Y441076D01*
X522704Y441009D01*
X522613Y440946D01*
X522520Y440885D01*
X522426Y440828D01*
X522329Y440775D01*
X522230Y440724D01*
X522129Y440677D01*
X522027Y440634D01*
X521924Y440594D01*
X521819Y440558D01*
X521713Y440526D01*
X521606Y440497D01*
X521498Y440472D01*
X521389Y440451D01*
X521280Y440434D01*
X521170Y440420D01*
X521059Y440411D01*
X520949Y440405D01*
X520838Y440403D01*
X517663Y440403D01*
X528522Y435323D02*
X531697Y435323D01*
X531808Y435325D01*
X531918Y435331D01*
X532029Y435340D01*
X532139Y435354D01*
X532248Y435371D01*
X532357Y435392D01*
X532465Y435417D01*
X532572Y435446D01*
X532678Y435478D01*
X532783Y435514D01*
X532886Y435554D01*
X532988Y435597D01*
X533089Y435644D01*
X533188Y435695D01*
X533285Y435748D01*
X533379Y435805D01*
X533472Y435866D01*
X533563Y435929D01*
X533652Y435996D01*
X533738Y436066D01*
X533821Y436139D01*
X533903Y436214D01*
X533981Y436292D01*
X534056Y436374D01*
X534129Y436457D01*
X534199Y436543D01*
X534266Y436632D01*
X534329Y436723D01*
X534390Y436816D01*
X534447Y436910D01*
X534500Y437007D01*
X534551Y437106D01*
X534598Y437207D01*
X534641Y437309D01*
X534681Y437412D01*
X534717Y437517D01*
X534749Y437623D01*
X534778Y437730D01*
X534803Y437838D01*
X534824Y437947D01*
X534841Y438056D01*
X534855Y438166D01*
X534864Y438277D01*
X534870Y438387D01*
X534872Y438498D01*
X534870Y438609D01*
X534864Y438719D01*
X534855Y438830D01*
X534841Y438940D01*
X534824Y439049D01*
X534803Y439158D01*
X534778Y439266D01*
X534749Y439373D01*
X534717Y439479D01*
X534681Y439584D01*
X534641Y439687D01*
X534598Y439789D01*
X534551Y439890D01*
X534500Y439989D01*
X534447Y440085D01*
X534390Y440180D01*
X534329Y440273D01*
X534266Y440364D01*
X534199Y440453D01*
X534129Y440539D01*
X534056Y440622D01*
X533981Y440704D01*
X533903Y440782D01*
X533821Y440857D01*
X533738Y440930D01*
X533652Y441000D01*
X533563Y441067D01*
X533472Y441130D01*
X533379Y441191D01*
X533285Y441248D01*
X533188Y441301D01*
X533089Y441352D01*
X532988Y441399D01*
X532886Y441442D01*
X532783Y441482D01*
X532678Y441518D01*
X532572Y441550D01*
X532465Y441579D01*
X532357Y441604D01*
X532248Y441625D01*
X532139Y441642D01*
X532029Y441656D01*
X531918Y441665D01*
X531808Y441671D01*
X531697Y441673D01*
X532332Y446753D02*
X528522Y446753D01*
X532332Y446753D02*
X532432Y446751D01*
X532531Y446745D01*
X532631Y446735D01*
X532729Y446722D01*
X532828Y446704D01*
X532925Y446683D01*
X533021Y446658D01*
X533117Y446629D01*
X533211Y446596D01*
X533304Y446560D01*
X533395Y446520D01*
X533485Y446476D01*
X533573Y446429D01*
X533659Y446379D01*
X533743Y446325D01*
X533825Y446268D01*
X533904Y446208D01*
X533982Y446144D01*
X534056Y446078D01*
X534128Y446009D01*
X534197Y445937D01*
X534263Y445863D01*
X534327Y445785D01*
X534387Y445706D01*
X534444Y445624D01*
X534498Y445540D01*
X534548Y445454D01*
X534595Y445366D01*
X534639Y445276D01*
X534679Y445185D01*
X534715Y445092D01*
X534748Y444998D01*
X534777Y444902D01*
X534802Y444806D01*
X534823Y444709D01*
X534841Y444610D01*
X534854Y444512D01*
X534864Y444412D01*
X534870Y444313D01*
X534872Y444213D01*
X534870Y444113D01*
X534864Y444014D01*
X534854Y443914D01*
X534841Y443816D01*
X534823Y443717D01*
X534802Y443620D01*
X534777Y443524D01*
X534748Y443428D01*
X534715Y443334D01*
X534679Y443241D01*
X534639Y443150D01*
X534595Y443060D01*
X534548Y442972D01*
X534498Y442886D01*
X534444Y442802D01*
X534387Y442720D01*
X534327Y442641D01*
X534263Y442563D01*
X534197Y442489D01*
X534128Y442417D01*
X534056Y442348D01*
X533982Y442282D01*
X533904Y442218D01*
X533825Y442158D01*
X533743Y442101D01*
X533659Y442047D01*
X533573Y441997D01*
X533485Y441950D01*
X533395Y441906D01*
X533304Y441866D01*
X533211Y441830D01*
X533117Y441797D01*
X533021Y441768D01*
X532925Y441743D01*
X532828Y441722D01*
X532729Y441704D01*
X532631Y441691D01*
X532531Y441681D01*
X532432Y441675D01*
X532332Y441673D01*
X529792Y441673D01*
D15*
X279400Y445610D02*
X279400Y421480D01*
X177800Y421480D02*
X177800Y445610D01*
X177800Y421480D02*
X279400Y421480D01*
X279400Y411320D01*
X177800Y411320D01*
X177800Y421480D01*
X270510Y454500D02*
X270723Y454503D01*
X270936Y454500D01*
X271149Y454492D01*
X271362Y454479D01*
X271574Y454461D01*
X271785Y454438D01*
X271997Y454409D01*
X272207Y454375D01*
X272416Y454336D01*
X272625Y454292D01*
X272832Y454243D01*
X273038Y454188D01*
X273243Y454129D01*
X273446Y454065D01*
X273647Y453995D01*
X273847Y453921D01*
X274045Y453842D01*
X274240Y453758D01*
X274434Y453669D01*
X274625Y453576D01*
X274815Y453478D01*
X275001Y453375D01*
X275185Y453268D01*
X275367Y453156D01*
X275545Y453040D01*
X275721Y452919D01*
X275893Y452795D01*
X276063Y452666D01*
X276229Y452532D01*
X276392Y452395D01*
X276552Y452254D01*
X276708Y452109D01*
X276860Y451960D01*
X277009Y451808D01*
X277154Y451652D01*
X277295Y451492D01*
X277432Y451329D01*
X277566Y451163D01*
X277695Y450993D01*
X277819Y450821D01*
X277940Y450645D01*
X278056Y450467D01*
X278168Y450285D01*
X278275Y450101D01*
X278378Y449915D01*
X278476Y449725D01*
X278569Y449534D01*
X278658Y449340D01*
X278742Y449145D01*
X278821Y448947D01*
X278895Y448747D01*
X278965Y448546D01*
X279029Y448343D01*
X279088Y448138D01*
X279143Y447932D01*
X279192Y447725D01*
X279236Y447516D01*
X279275Y447307D01*
X279309Y447097D01*
X279338Y446885D01*
X279361Y446674D01*
X279379Y446462D01*
X279392Y446249D01*
X279400Y446036D01*
X279403Y445823D01*
X279400Y445610D01*
X186690Y454500D02*
X186477Y454503D01*
X186264Y454500D01*
X186051Y454492D01*
X185838Y454479D01*
X185626Y454461D01*
X185415Y454438D01*
X185203Y454409D01*
X184993Y454375D01*
X184784Y454336D01*
X184575Y454292D01*
X184368Y454243D01*
X184162Y454188D01*
X183957Y454129D01*
X183754Y454065D01*
X183553Y453995D01*
X183353Y453921D01*
X183155Y453842D01*
X182960Y453758D01*
X182766Y453669D01*
X182575Y453576D01*
X182385Y453478D01*
X182199Y453375D01*
X182015Y453268D01*
X181833Y453156D01*
X181655Y453040D01*
X181479Y452919D01*
X181307Y452795D01*
X181137Y452666D01*
X180971Y452532D01*
X180808Y452395D01*
X180648Y452254D01*
X180492Y452109D01*
X180340Y451960D01*
X180191Y451808D01*
X180046Y451652D01*
X179905Y451492D01*
X179768Y451329D01*
X179634Y451163D01*
X179505Y450993D01*
X179381Y450821D01*
X179260Y450645D01*
X179144Y450467D01*
X179032Y450285D01*
X178925Y450101D01*
X178822Y449915D01*
X178724Y449725D01*
X178631Y449534D01*
X178542Y449340D01*
X178458Y449145D01*
X178379Y448947D01*
X178305Y448747D01*
X178235Y448546D01*
X178171Y448343D01*
X178112Y448138D01*
X178057Y447932D01*
X178008Y447725D01*
X177964Y447516D01*
X177925Y447307D01*
X177891Y447097D01*
X177862Y446885D01*
X177839Y446674D01*
X177821Y446462D01*
X177808Y446249D01*
X177800Y446036D01*
X177797Y445823D01*
X177800Y445610D01*
X266700Y454500D02*
X270510Y454500D01*
X190500Y454500D02*
X186690Y454500D01*
D16*
X228600Y416400D03*
D12*
X283916Y435373D02*
X286060Y435373D01*
X283916Y435373D02*
X283845Y435375D01*
X283773Y435381D01*
X283703Y435390D01*
X283633Y435403D01*
X283563Y435420D01*
X283495Y435441D01*
X283428Y435465D01*
X283362Y435493D01*
X283298Y435524D01*
X283235Y435559D01*
X283175Y435597D01*
X283116Y435638D01*
X283060Y435682D01*
X283006Y435729D01*
X282955Y435778D01*
X282907Y435831D01*
X282861Y435886D01*
X282819Y435943D01*
X282779Y436003D01*
X282743Y436064D01*
X282710Y436128D01*
X282681Y436193D01*
X282655Y436259D01*
X282632Y436327D01*
X282613Y436396D01*
X282598Y436466D01*
X282587Y436536D01*
X282579Y436607D01*
X282575Y436678D01*
X282575Y436750D01*
X282579Y436821D01*
X282587Y436892D01*
X282598Y436962D01*
X282613Y437032D01*
X282632Y437101D01*
X282655Y437169D01*
X282681Y437235D01*
X282710Y437300D01*
X282743Y437364D01*
X282779Y437425D01*
X282819Y437485D01*
X282861Y437542D01*
X282907Y437597D01*
X282955Y437650D01*
X283006Y437699D01*
X283060Y437746D01*
X283116Y437790D01*
X283175Y437831D01*
X283235Y437869D01*
X283298Y437904D01*
X283362Y437935D01*
X283428Y437963D01*
X283495Y437987D01*
X283563Y438008D01*
X283633Y438025D01*
X283703Y438038D01*
X283773Y438047D01*
X283845Y438053D01*
X283916Y438055D01*
X283916Y438054D02*
X286060Y438054D01*
X286060Y438055D02*
X286131Y438053D01*
X286203Y438047D01*
X286273Y438038D01*
X286343Y438025D01*
X286413Y438008D01*
X286481Y437987D01*
X286548Y437963D01*
X286614Y437935D01*
X286678Y437904D01*
X286741Y437869D01*
X286801Y437831D01*
X286860Y437790D01*
X286916Y437746D01*
X286970Y437699D01*
X287021Y437650D01*
X287069Y437597D01*
X287115Y437542D01*
X287157Y437485D01*
X287197Y437425D01*
X287233Y437364D01*
X287266Y437300D01*
X287295Y437235D01*
X287321Y437169D01*
X287344Y437101D01*
X287363Y437032D01*
X287378Y436962D01*
X287389Y436892D01*
X287397Y436821D01*
X287401Y436750D01*
X287401Y436678D01*
X287397Y436607D01*
X287389Y436536D01*
X287378Y436466D01*
X287363Y436396D01*
X287344Y436327D01*
X287321Y436259D01*
X287295Y436193D01*
X287266Y436128D01*
X287233Y436064D01*
X287197Y436003D01*
X287157Y435943D01*
X287115Y435886D01*
X287069Y435831D01*
X287021Y435778D01*
X286970Y435729D01*
X286916Y435682D01*
X286860Y435638D01*
X286801Y435597D01*
X286741Y435559D01*
X286678Y435524D01*
X286614Y435493D01*
X286548Y435465D01*
X286481Y435441D01*
X286413Y435420D01*
X286343Y435403D01*
X286273Y435390D01*
X286203Y435381D01*
X286131Y435375D01*
X286060Y435373D01*
X286329Y437518D02*
X287401Y438591D01*
X283647Y440466D02*
X282575Y441806D01*
X287401Y441806D01*
X287401Y440466D02*
X287401Y443147D01*
D15*
X393700Y418940D02*
X393700Y413860D01*
D10*
X384937Y423512D02*
X384937Y430116D01*
X386771Y430116D01*
X386856Y430114D01*
X386940Y430108D01*
X387024Y430098D01*
X387108Y430085D01*
X387191Y430067D01*
X387273Y430046D01*
X387354Y430021D01*
X387434Y429992D01*
X387512Y429960D01*
X387588Y429924D01*
X387663Y429884D01*
X387736Y429841D01*
X387807Y429795D01*
X387876Y429746D01*
X387943Y429693D01*
X388007Y429637D01*
X388068Y429579D01*
X388126Y429518D01*
X388182Y429454D01*
X388235Y429387D01*
X388284Y429318D01*
X388330Y429247D01*
X388373Y429174D01*
X388413Y429099D01*
X388449Y429023D01*
X388481Y428945D01*
X388510Y428865D01*
X388535Y428784D01*
X388556Y428702D01*
X388574Y428619D01*
X388587Y428535D01*
X388597Y428451D01*
X388603Y428367D01*
X388605Y428282D01*
X388603Y428197D01*
X388597Y428113D01*
X388587Y428029D01*
X388574Y427945D01*
X388556Y427862D01*
X388535Y427780D01*
X388510Y427699D01*
X388481Y427619D01*
X388449Y427541D01*
X388413Y427465D01*
X388373Y427390D01*
X388330Y427317D01*
X388284Y427246D01*
X388235Y427177D01*
X388182Y427110D01*
X388126Y427046D01*
X388068Y426985D01*
X388007Y426927D01*
X387943Y426871D01*
X387876Y426818D01*
X387807Y426769D01*
X387736Y426723D01*
X387663Y426680D01*
X387588Y426640D01*
X387512Y426604D01*
X387434Y426572D01*
X387354Y426543D01*
X387273Y426518D01*
X387191Y426497D01*
X387108Y426479D01*
X387024Y426466D01*
X386940Y426456D01*
X386856Y426450D01*
X386771Y426448D01*
X386771Y426447D02*
X384937Y426447D01*
X387138Y426447D02*
X388606Y423512D01*
X392173Y428648D02*
X394008Y430116D01*
X394008Y423512D01*
X395842Y423512D02*
X392173Y423512D01*
D15*
X230600Y464360D02*
X230600Y469440D01*
D10*
X221837Y474012D02*
X221837Y480616D01*
X223671Y480616D01*
X223756Y480614D01*
X223840Y480608D01*
X223924Y480598D01*
X224008Y480585D01*
X224091Y480567D01*
X224173Y480546D01*
X224254Y480521D01*
X224334Y480492D01*
X224412Y480460D01*
X224488Y480424D01*
X224563Y480384D01*
X224636Y480341D01*
X224707Y480295D01*
X224776Y480246D01*
X224843Y480193D01*
X224907Y480137D01*
X224968Y480079D01*
X225026Y480018D01*
X225082Y479954D01*
X225135Y479887D01*
X225184Y479818D01*
X225230Y479747D01*
X225273Y479674D01*
X225313Y479599D01*
X225349Y479523D01*
X225381Y479445D01*
X225410Y479365D01*
X225435Y479284D01*
X225456Y479202D01*
X225474Y479119D01*
X225487Y479035D01*
X225497Y478951D01*
X225503Y478867D01*
X225505Y478782D01*
X225503Y478697D01*
X225497Y478613D01*
X225487Y478529D01*
X225474Y478445D01*
X225456Y478362D01*
X225435Y478280D01*
X225410Y478199D01*
X225381Y478119D01*
X225349Y478041D01*
X225313Y477965D01*
X225273Y477890D01*
X225230Y477817D01*
X225184Y477746D01*
X225135Y477677D01*
X225082Y477610D01*
X225026Y477546D01*
X224968Y477485D01*
X224907Y477427D01*
X224843Y477371D01*
X224776Y477318D01*
X224707Y477269D01*
X224636Y477223D01*
X224563Y477180D01*
X224488Y477140D01*
X224412Y477104D01*
X224334Y477072D01*
X224254Y477043D01*
X224173Y477018D01*
X224091Y476997D01*
X224008Y476979D01*
X223924Y476966D01*
X223840Y476956D01*
X223756Y476950D01*
X223671Y476948D01*
X223671Y476947D02*
X221837Y476947D01*
X224038Y476947D02*
X225506Y474012D01*
X231091Y480616D02*
X231170Y480614D01*
X231248Y480609D01*
X231326Y480599D01*
X231403Y480586D01*
X231480Y480569D01*
X231556Y480549D01*
X231631Y480525D01*
X231705Y480498D01*
X231777Y480467D01*
X231848Y480432D01*
X231917Y480395D01*
X231984Y480354D01*
X232049Y480310D01*
X232112Y480263D01*
X232172Y480213D01*
X232230Y480160D01*
X232286Y480104D01*
X232339Y480046D01*
X232389Y479986D01*
X232436Y479923D01*
X232480Y479858D01*
X232521Y479791D01*
X232558Y479722D01*
X232593Y479651D01*
X232624Y479579D01*
X232651Y479505D01*
X232675Y479430D01*
X232695Y479354D01*
X232712Y479277D01*
X232725Y479200D01*
X232735Y479122D01*
X232740Y479044D01*
X232742Y478965D01*
X231091Y480616D02*
X231002Y480614D01*
X230913Y480609D01*
X230825Y480599D01*
X230737Y480586D01*
X230650Y480570D01*
X230563Y480549D01*
X230478Y480525D01*
X230393Y480498D01*
X230310Y480467D01*
X230228Y480432D01*
X230147Y480394D01*
X230068Y480353D01*
X229992Y480309D01*
X229916Y480261D01*
X229843Y480210D01*
X229773Y480157D01*
X229704Y480100D01*
X229638Y480040D01*
X229575Y479978D01*
X229514Y479913D01*
X229456Y479846D01*
X229401Y479776D01*
X229348Y479704D01*
X229299Y479630D01*
X229253Y479554D01*
X229211Y479476D01*
X229171Y479396D01*
X229135Y479315D01*
X229102Y479232D01*
X229073Y479148D01*
X232192Y477681D02*
X232248Y477737D01*
X232302Y477796D01*
X232353Y477857D01*
X232402Y477921D01*
X232447Y477986D01*
X232490Y478054D01*
X232529Y478123D01*
X232566Y478194D01*
X232599Y478267D01*
X232628Y478341D01*
X232655Y478416D01*
X232678Y478492D01*
X232697Y478570D01*
X232713Y478648D01*
X232726Y478726D01*
X232735Y478806D01*
X232740Y478885D01*
X232742Y478965D01*
X232192Y477681D02*
X229073Y474012D01*
X232742Y474012D01*
D15*
X393700Y457040D02*
X393700Y451960D01*
D10*
X384937Y461612D02*
X384937Y468216D01*
X386771Y468216D01*
X386856Y468214D01*
X386940Y468208D01*
X387024Y468198D01*
X387108Y468185D01*
X387191Y468167D01*
X387273Y468146D01*
X387354Y468121D01*
X387434Y468092D01*
X387512Y468060D01*
X387588Y468024D01*
X387663Y467984D01*
X387736Y467941D01*
X387807Y467895D01*
X387876Y467846D01*
X387943Y467793D01*
X388007Y467737D01*
X388068Y467679D01*
X388126Y467618D01*
X388182Y467554D01*
X388235Y467487D01*
X388284Y467418D01*
X388330Y467347D01*
X388373Y467274D01*
X388413Y467199D01*
X388449Y467123D01*
X388481Y467045D01*
X388510Y466965D01*
X388535Y466884D01*
X388556Y466802D01*
X388574Y466719D01*
X388587Y466635D01*
X388597Y466551D01*
X388603Y466467D01*
X388605Y466382D01*
X388603Y466297D01*
X388597Y466213D01*
X388587Y466129D01*
X388574Y466045D01*
X388556Y465962D01*
X388535Y465880D01*
X388510Y465799D01*
X388481Y465719D01*
X388449Y465641D01*
X388413Y465565D01*
X388373Y465490D01*
X388330Y465417D01*
X388284Y465346D01*
X388235Y465277D01*
X388182Y465210D01*
X388126Y465146D01*
X388068Y465085D01*
X388007Y465027D01*
X387943Y464971D01*
X387876Y464918D01*
X387807Y464869D01*
X387736Y464823D01*
X387663Y464780D01*
X387588Y464740D01*
X387512Y464704D01*
X387434Y464672D01*
X387354Y464643D01*
X387273Y464618D01*
X387191Y464597D01*
X387108Y464579D01*
X387024Y464566D01*
X386940Y464556D01*
X386856Y464550D01*
X386771Y464548D01*
X386771Y464547D02*
X384937Y464547D01*
X387138Y464547D02*
X388606Y461612D01*
X392173Y461612D02*
X394008Y461612D01*
X394093Y461614D01*
X394177Y461620D01*
X394261Y461630D01*
X394345Y461643D01*
X394428Y461661D01*
X394510Y461682D01*
X394591Y461707D01*
X394671Y461736D01*
X394749Y461768D01*
X394825Y461804D01*
X394900Y461844D01*
X394973Y461887D01*
X395044Y461933D01*
X395113Y461982D01*
X395180Y462035D01*
X395244Y462091D01*
X395305Y462149D01*
X395363Y462210D01*
X395419Y462274D01*
X395472Y462341D01*
X395521Y462410D01*
X395567Y462481D01*
X395610Y462554D01*
X395650Y462629D01*
X395686Y462705D01*
X395718Y462783D01*
X395747Y462863D01*
X395772Y462944D01*
X395793Y463026D01*
X395811Y463109D01*
X395824Y463193D01*
X395834Y463277D01*
X395840Y463361D01*
X395842Y463446D01*
X395840Y463531D01*
X395834Y463615D01*
X395824Y463699D01*
X395811Y463783D01*
X395793Y463866D01*
X395772Y463948D01*
X395747Y464029D01*
X395718Y464109D01*
X395686Y464187D01*
X395650Y464263D01*
X395610Y464338D01*
X395567Y464411D01*
X395521Y464482D01*
X395472Y464551D01*
X395419Y464618D01*
X395363Y464682D01*
X395305Y464743D01*
X395244Y464801D01*
X395180Y464857D01*
X395113Y464910D01*
X395044Y464959D01*
X394973Y465005D01*
X394900Y465048D01*
X394825Y465088D01*
X394749Y465124D01*
X394671Y465156D01*
X394591Y465185D01*
X394510Y465210D01*
X394428Y465231D01*
X394345Y465249D01*
X394261Y465262D01*
X394177Y465272D01*
X394093Y465278D01*
X394008Y465280D01*
X394375Y468216D02*
X392173Y468216D01*
X394375Y468216D02*
X394451Y468214D01*
X394526Y468208D01*
X394601Y468199D01*
X394675Y468185D01*
X394749Y468168D01*
X394821Y468146D01*
X394893Y468122D01*
X394963Y468093D01*
X395031Y468061D01*
X395098Y468026D01*
X395163Y467987D01*
X395226Y467944D01*
X395286Y467899D01*
X395344Y467851D01*
X395400Y467799D01*
X395452Y467745D01*
X395502Y467688D01*
X395549Y467629D01*
X395593Y467568D01*
X395634Y467504D01*
X395671Y467438D01*
X395705Y467370D01*
X395735Y467301D01*
X395762Y467230D01*
X395785Y467158D01*
X395804Y467085D01*
X395819Y467011D01*
X395831Y466936D01*
X395839Y466861D01*
X395843Y466786D01*
X395843Y466710D01*
X395839Y466635D01*
X395831Y466560D01*
X395819Y466485D01*
X395804Y466411D01*
X395785Y466338D01*
X395762Y466266D01*
X395735Y466195D01*
X395705Y466126D01*
X395671Y466058D01*
X395634Y465992D01*
X395593Y465928D01*
X395549Y465867D01*
X395502Y465808D01*
X395452Y465751D01*
X395400Y465697D01*
X395344Y465645D01*
X395286Y465597D01*
X395226Y465552D01*
X395163Y465509D01*
X395098Y465470D01*
X395031Y465435D01*
X394963Y465403D01*
X394893Y465374D01*
X394821Y465350D01*
X394749Y465328D01*
X394675Y465311D01*
X394601Y465297D01*
X394526Y465288D01*
X394451Y465282D01*
X394375Y465280D01*
X394375Y465281D02*
X392907Y465281D01*
D17*
X106228Y422242D02*
X106228Y410558D01*
X102983Y422242D02*
X109474Y422242D01*
X113651Y419646D02*
X116896Y422242D01*
X116896Y410558D01*
X113651Y410558D02*
X120142Y410558D01*
D10*
X89350Y625700D02*
X76650Y625700D01*
X89350Y625700D02*
X95700Y619350D01*
X95700Y606650D01*
X89350Y600300D01*
X70300Y606650D02*
X70300Y619350D01*
X76650Y625700D01*
X70300Y606650D02*
X76650Y600300D01*
X89350Y600300D01*
D12*
X73983Y634463D02*
X73983Y643353D01*
X73983Y634463D02*
X73981Y634363D01*
X73975Y634264D01*
X73965Y634164D01*
X73952Y634066D01*
X73934Y633967D01*
X73913Y633870D01*
X73888Y633774D01*
X73859Y633678D01*
X73826Y633584D01*
X73790Y633491D01*
X73750Y633400D01*
X73706Y633310D01*
X73659Y633222D01*
X73609Y633136D01*
X73555Y633052D01*
X73498Y632970D01*
X73438Y632891D01*
X73374Y632813D01*
X73308Y632739D01*
X73239Y632667D01*
X73167Y632598D01*
X73093Y632532D01*
X73015Y632468D01*
X72936Y632408D01*
X72854Y632351D01*
X72770Y632297D01*
X72684Y632247D01*
X72596Y632200D01*
X72506Y632156D01*
X72415Y632116D01*
X72322Y632080D01*
X72228Y632047D01*
X72132Y632018D01*
X72036Y631993D01*
X71939Y631972D01*
X71840Y631954D01*
X71742Y631941D01*
X71642Y631931D01*
X71543Y631925D01*
X71443Y631923D01*
X70173Y631923D01*
X79963Y631923D02*
X79963Y643353D01*
X83138Y643353D01*
X83249Y643351D01*
X83359Y643345D01*
X83470Y643336D01*
X83580Y643322D01*
X83689Y643305D01*
X83798Y643284D01*
X83906Y643259D01*
X84013Y643230D01*
X84119Y643198D01*
X84224Y643162D01*
X84327Y643122D01*
X84429Y643079D01*
X84530Y643032D01*
X84629Y642981D01*
X84726Y642928D01*
X84820Y642871D01*
X84913Y642810D01*
X85004Y642747D01*
X85093Y642680D01*
X85179Y642610D01*
X85262Y642537D01*
X85344Y642462D01*
X85422Y642384D01*
X85497Y642302D01*
X85570Y642219D01*
X85640Y642133D01*
X85707Y642044D01*
X85770Y641953D01*
X85831Y641860D01*
X85888Y641765D01*
X85941Y641669D01*
X85992Y641570D01*
X86039Y641469D01*
X86082Y641367D01*
X86122Y641264D01*
X86158Y641159D01*
X86190Y641053D01*
X86219Y640946D01*
X86244Y640838D01*
X86265Y640729D01*
X86282Y640620D01*
X86296Y640510D01*
X86305Y640399D01*
X86311Y640289D01*
X86313Y640178D01*
X86311Y640067D01*
X86305Y639957D01*
X86296Y639846D01*
X86282Y639736D01*
X86265Y639627D01*
X86244Y639518D01*
X86219Y639410D01*
X86190Y639303D01*
X86158Y639197D01*
X86122Y639092D01*
X86082Y638989D01*
X86039Y638887D01*
X85992Y638786D01*
X85941Y638687D01*
X85888Y638591D01*
X85831Y638496D01*
X85770Y638403D01*
X85707Y638312D01*
X85640Y638223D01*
X85570Y638137D01*
X85497Y638054D01*
X85422Y637972D01*
X85344Y637894D01*
X85262Y637819D01*
X85179Y637746D01*
X85093Y637676D01*
X85004Y637609D01*
X84913Y637546D01*
X84820Y637485D01*
X84725Y637428D01*
X84629Y637375D01*
X84530Y637324D01*
X84429Y637277D01*
X84327Y637234D01*
X84224Y637194D01*
X84119Y637158D01*
X84013Y637126D01*
X83906Y637097D01*
X83798Y637072D01*
X83689Y637051D01*
X83580Y637034D01*
X83470Y637020D01*
X83359Y637011D01*
X83249Y637005D01*
X83138Y637003D01*
X79963Y637003D01*
X90822Y640813D02*
X93997Y643353D01*
X93997Y631923D01*
X90822Y631923D02*
X97172Y631923D01*
D10*
X91350Y564700D02*
X78650Y564700D01*
X91350Y564700D02*
X97700Y558350D01*
X97700Y545650D01*
X91350Y539300D01*
X72300Y545650D02*
X72300Y558350D01*
X78650Y564700D01*
X72300Y545650D02*
X78650Y539300D01*
X91350Y539300D01*
D12*
X75983Y573463D02*
X75983Y582353D01*
X75983Y573463D02*
X75981Y573363D01*
X75975Y573264D01*
X75965Y573164D01*
X75952Y573066D01*
X75934Y572967D01*
X75913Y572870D01*
X75888Y572774D01*
X75859Y572678D01*
X75826Y572584D01*
X75790Y572491D01*
X75750Y572400D01*
X75706Y572310D01*
X75659Y572222D01*
X75609Y572136D01*
X75555Y572052D01*
X75498Y571970D01*
X75438Y571891D01*
X75374Y571813D01*
X75308Y571739D01*
X75239Y571667D01*
X75167Y571598D01*
X75093Y571532D01*
X75015Y571468D01*
X74936Y571408D01*
X74854Y571351D01*
X74770Y571297D01*
X74684Y571247D01*
X74596Y571200D01*
X74506Y571156D01*
X74415Y571116D01*
X74322Y571080D01*
X74228Y571047D01*
X74132Y571018D01*
X74036Y570993D01*
X73939Y570972D01*
X73840Y570954D01*
X73742Y570941D01*
X73642Y570931D01*
X73543Y570925D01*
X73443Y570923D01*
X72173Y570923D01*
X81963Y570923D02*
X81963Y582353D01*
X85138Y582353D01*
X85249Y582351D01*
X85359Y582345D01*
X85470Y582336D01*
X85580Y582322D01*
X85689Y582305D01*
X85798Y582284D01*
X85906Y582259D01*
X86013Y582230D01*
X86119Y582198D01*
X86224Y582162D01*
X86327Y582122D01*
X86429Y582079D01*
X86530Y582032D01*
X86629Y581981D01*
X86726Y581928D01*
X86820Y581871D01*
X86913Y581810D01*
X87004Y581747D01*
X87093Y581680D01*
X87179Y581610D01*
X87262Y581537D01*
X87344Y581462D01*
X87422Y581384D01*
X87497Y581302D01*
X87570Y581219D01*
X87640Y581133D01*
X87707Y581044D01*
X87770Y580953D01*
X87831Y580860D01*
X87888Y580765D01*
X87941Y580669D01*
X87992Y580570D01*
X88039Y580469D01*
X88082Y580367D01*
X88122Y580264D01*
X88158Y580159D01*
X88190Y580053D01*
X88219Y579946D01*
X88244Y579838D01*
X88265Y579729D01*
X88282Y579620D01*
X88296Y579510D01*
X88305Y579399D01*
X88311Y579289D01*
X88313Y579178D01*
X88311Y579067D01*
X88305Y578957D01*
X88296Y578846D01*
X88282Y578736D01*
X88265Y578627D01*
X88244Y578518D01*
X88219Y578410D01*
X88190Y578303D01*
X88158Y578197D01*
X88122Y578092D01*
X88082Y577989D01*
X88039Y577887D01*
X87992Y577786D01*
X87941Y577687D01*
X87888Y577591D01*
X87831Y577496D01*
X87770Y577403D01*
X87707Y577312D01*
X87640Y577223D01*
X87570Y577137D01*
X87497Y577054D01*
X87422Y576972D01*
X87344Y576894D01*
X87262Y576819D01*
X87179Y576746D01*
X87093Y576676D01*
X87004Y576609D01*
X86913Y576546D01*
X86820Y576485D01*
X86725Y576428D01*
X86629Y576375D01*
X86530Y576324D01*
X86429Y576277D01*
X86327Y576234D01*
X86224Y576194D01*
X86119Y576158D01*
X86013Y576126D01*
X85906Y576097D01*
X85798Y576072D01*
X85689Y576051D01*
X85580Y576034D01*
X85470Y576020D01*
X85359Y576011D01*
X85249Y576005D01*
X85138Y576003D01*
X81963Y576003D01*
X92822Y573463D02*
X95362Y582353D01*
X92822Y573463D02*
X99172Y573463D01*
X97267Y576003D02*
X97267Y570923D01*
D10*
X92350Y504700D02*
X79650Y504700D01*
X92350Y504700D02*
X98700Y498350D01*
X98700Y485650D01*
X92350Y479300D01*
X73300Y485650D02*
X73300Y498350D01*
X79650Y504700D01*
X73300Y485650D02*
X79650Y479300D01*
X92350Y479300D01*
D12*
X76983Y513463D02*
X76983Y522353D01*
X76983Y513463D02*
X76981Y513363D01*
X76975Y513264D01*
X76965Y513164D01*
X76952Y513066D01*
X76934Y512967D01*
X76913Y512870D01*
X76888Y512774D01*
X76859Y512678D01*
X76826Y512584D01*
X76790Y512491D01*
X76750Y512400D01*
X76706Y512310D01*
X76659Y512222D01*
X76609Y512136D01*
X76555Y512052D01*
X76498Y511970D01*
X76438Y511891D01*
X76374Y511813D01*
X76308Y511739D01*
X76239Y511667D01*
X76167Y511598D01*
X76093Y511532D01*
X76015Y511468D01*
X75936Y511408D01*
X75854Y511351D01*
X75770Y511297D01*
X75684Y511247D01*
X75596Y511200D01*
X75506Y511156D01*
X75415Y511116D01*
X75322Y511080D01*
X75228Y511047D01*
X75132Y511018D01*
X75036Y510993D01*
X74939Y510972D01*
X74840Y510954D01*
X74742Y510941D01*
X74642Y510931D01*
X74543Y510925D01*
X74443Y510923D01*
X73173Y510923D01*
X82963Y510923D02*
X82963Y522353D01*
X86138Y522353D01*
X86249Y522351D01*
X86359Y522345D01*
X86470Y522336D01*
X86580Y522322D01*
X86689Y522305D01*
X86798Y522284D01*
X86906Y522259D01*
X87013Y522230D01*
X87119Y522198D01*
X87224Y522162D01*
X87327Y522122D01*
X87429Y522079D01*
X87530Y522032D01*
X87629Y521981D01*
X87726Y521928D01*
X87820Y521871D01*
X87913Y521810D01*
X88004Y521747D01*
X88093Y521680D01*
X88179Y521610D01*
X88262Y521537D01*
X88344Y521462D01*
X88422Y521384D01*
X88497Y521302D01*
X88570Y521219D01*
X88640Y521133D01*
X88707Y521044D01*
X88770Y520953D01*
X88831Y520860D01*
X88888Y520765D01*
X88941Y520669D01*
X88992Y520570D01*
X89039Y520469D01*
X89082Y520367D01*
X89122Y520264D01*
X89158Y520159D01*
X89190Y520053D01*
X89219Y519946D01*
X89244Y519838D01*
X89265Y519729D01*
X89282Y519620D01*
X89296Y519510D01*
X89305Y519399D01*
X89311Y519289D01*
X89313Y519178D01*
X89311Y519067D01*
X89305Y518957D01*
X89296Y518846D01*
X89282Y518736D01*
X89265Y518627D01*
X89244Y518518D01*
X89219Y518410D01*
X89190Y518303D01*
X89158Y518197D01*
X89122Y518092D01*
X89082Y517989D01*
X89039Y517887D01*
X88992Y517786D01*
X88941Y517687D01*
X88888Y517590D01*
X88831Y517496D01*
X88770Y517403D01*
X88707Y517312D01*
X88640Y517223D01*
X88570Y517137D01*
X88497Y517054D01*
X88422Y516972D01*
X88344Y516894D01*
X88262Y516819D01*
X88179Y516746D01*
X88093Y516676D01*
X88004Y516609D01*
X87913Y516546D01*
X87820Y516485D01*
X87725Y516428D01*
X87629Y516375D01*
X87530Y516324D01*
X87429Y516277D01*
X87327Y516234D01*
X87224Y516194D01*
X87119Y516158D01*
X87013Y516126D01*
X86906Y516097D01*
X86798Y516072D01*
X86689Y516051D01*
X86580Y516034D01*
X86470Y516020D01*
X86359Y516011D01*
X86249Y516005D01*
X86138Y516003D01*
X82963Y516003D01*
X93822Y510923D02*
X97632Y510923D01*
X97732Y510925D01*
X97831Y510931D01*
X97931Y510941D01*
X98029Y510954D01*
X98128Y510972D01*
X98225Y510993D01*
X98321Y511018D01*
X98417Y511047D01*
X98511Y511080D01*
X98604Y511116D01*
X98695Y511156D01*
X98785Y511200D01*
X98873Y511247D01*
X98959Y511297D01*
X99043Y511351D01*
X99125Y511408D01*
X99204Y511468D01*
X99282Y511532D01*
X99356Y511598D01*
X99428Y511667D01*
X99497Y511739D01*
X99563Y511813D01*
X99627Y511891D01*
X99687Y511970D01*
X99744Y512052D01*
X99798Y512136D01*
X99848Y512222D01*
X99895Y512310D01*
X99939Y512400D01*
X99979Y512491D01*
X100015Y512584D01*
X100048Y512678D01*
X100077Y512774D01*
X100102Y512870D01*
X100123Y512967D01*
X100141Y513066D01*
X100154Y513164D01*
X100164Y513264D01*
X100170Y513363D01*
X100172Y513463D01*
X100172Y514733D01*
X100170Y514833D01*
X100164Y514932D01*
X100154Y515032D01*
X100141Y515130D01*
X100123Y515229D01*
X100102Y515326D01*
X100077Y515422D01*
X100048Y515518D01*
X100015Y515612D01*
X99979Y515705D01*
X99939Y515796D01*
X99895Y515886D01*
X99848Y515974D01*
X99798Y516060D01*
X99744Y516144D01*
X99687Y516226D01*
X99627Y516305D01*
X99563Y516383D01*
X99497Y516457D01*
X99428Y516529D01*
X99356Y516598D01*
X99282Y516664D01*
X99204Y516728D01*
X99125Y516788D01*
X99043Y516845D01*
X98959Y516899D01*
X98873Y516949D01*
X98785Y516996D01*
X98695Y517040D01*
X98604Y517080D01*
X98511Y517116D01*
X98417Y517149D01*
X98321Y517178D01*
X98225Y517203D01*
X98128Y517224D01*
X98029Y517242D01*
X97931Y517255D01*
X97831Y517265D01*
X97732Y517271D01*
X97632Y517273D01*
X93822Y517273D01*
X93822Y522353D01*
X100172Y522353D01*
M02*
